<svg xmlns="http://www.w3.org/2000/svg" viewBox="0 0 712.46 229.2" version="1.0">
	<path style="fill:#171923" d="M131.203 227.01c-1.1-1.22-2-3.08-2-4.15 0-3.02-3.36-5.1-6.84-4.22-2.32.58-3.14.29-3.14-1.11 0-1.04-.56-1.9-1.25-1.9-.68 0-1.24.6-1.24 1.33 0 .72-.57.97-1.25.55-.69-.43-1.25-2.71-1.25-5.07s-.56-4.29-1.25-4.29c-.68 0-1.25 2.67-1.26 5.93-.01 3.25-.44 5.28-.94 4.49s-2.31-1.63-4.01-1.87c-2.62-.37-3.32-1.46-4.57-7.09-1.76-7.97-3.6-10.37-2.55-3.33.68 4.63.62 4.78-.9 2-1.64-2.97-1.64-2.97-2.49 1.55-1.04 5.53-4.17 7.45-12.6 7.72-9.436.31-12.164-1.63-14.832-10.53-2.015-6.73-2.578-7.51-4.99-6.9-2.841.71-7.324-2.29-8.504-5.69-.441-1.28-1.377-.38-2.922 2.8-2.527 5.2-4.306 6.05-4.306 2.05 0-1.44-1.403-3.73-3.119-5.08-2.671-2.1-3.09-3.38-2.919-8.91.14-4.55.349-5.25.704-2.38.527 4.25 2.839 4.43 2.839.21 0-1.33.621-2.42 1.381-2.42s1.04.89.623 1.98c-.479 1.25-.188 1.78.791 1.46 1.767-.59 4.691 1.92 4.691 4.03 0 .78.561 1.06 1.247.64s1.248-1.92 1.248-3.33c0-1.78.577-2.33 1.919-1.81 1.245.47 2.274-.22 2.927-1.99l1.008-2.73 2.066 3.16c1.136 1.73 2.676 6.45 3.422 10.49.746 4.03 2.569 9.49 4.052 12.13 2.319 4.12 3.17 4.7 6.074 4.15 1.87-.36 3.72-.11 4.13.56.41.66.15 1.2-.57 1.2-.73 0-1.32 1.2-1.32 2.65 0 2.14.34 2.37 1.76 1.19 1.2-1 2.01-1.05 2.57-.15 1.25 2.02 5.04 1.54 7.27-.91 1.1-1.22 2.38-4.61 2.85-7.53s1.11-5.05 1.44-4.72c.32.32 1.88.09 3.46-.51 2.47-.94 2.99-.63 3.75 2.26.82 3.1.96 3.17 1.9.86.77-1.88 1.07-1.1 1.22 3.12l.2 5.62 1.23-4.29c.84-2.92 1.55-3.77 2.23-2.67 1.25 2.01 2.53.22 3.87-5.41.83-3.48.94-3.28 1.05 2 .17 7.53 2.58 9.31 2.75 2.02.13-5.34.14-5.35 1.11-1.26 1.32 5.61 2.51 6.47 2.51 1.82 0-3.22.4-3.73 2.49-3.18 1.38.36 2.5 1.43 2.5 2.38s.57 1.72 1.27 1.72c1.41 0 .54-4.52-2.11-10.9-.93-2.24-1.89-10.29-2.16-18.09-.54-15.89-1.92-20.91-5.74-20.91-3.6 0-4.91 4.39-2.96 9.86 2.32 6.48 2.13 7.21-2.08 8.05-2.92.59-4.24 1.85-5.69 5.46-1.04 2.59-2.67 6.39-3.61 8.46s-2.4 5.44-3.24 7.49c-1.32 3.22-1.6 3.39-2.08 1.23-.31-1.38-1.09-3.14-1.72-3.93-.79-.97-.46-1.37 1.07-1.24 1.89.15 2.28-1.04 2.6-7.9.5-10.53-.07-12.42-5.39-17.9-3.95-4.06-4.16-4.59-1.86-4.59 1.43 0 5.48 2.75 8.99 6.12 5.51 5.28 6.76 5.95 9.12 4.88 4.59-2.09 3.45-7.41-2.16-10.05-2.55-1.2-5.57-3.59-6.69-5.31-2.16-3.3-5.34-4.04-7.61-1.77-.98.98-1.61.95-2.26-.11-1.76-2.85 1.48-4.25 6.51-2.81 6.11 1.75 16.15 3.31 15.26 2.37-.38-.4-3.98-2.48-7.99-4.63-7.22-3.85-11.04-4.26-17.52-1.88-2.46.9-2.46.89-.08-1.06 3.32-2.7 10.42-2.47 16.3.53 6.08 3.1 6.86 3.1 6.86.03 0-1.67.6-2.22 1.87-1.73 2.07.79 2.6-1.45.62-2.67-.68-.43-1.23-1.44-1.21-2.26.03-.82.79-.51 1.7.7.91 1.2 2.02 2.18 2.46 2.18 1.4 0 .85-4.43-.76-6.14-1.28-1.36-.95-1.55 1.87-1.05 3.07.55 3.43.24 3.43-2.92 0-2.63.48-3.35 1.87-2.81 1.25.47 1.88-.06 1.89-1.6.02-1.97.21-2.04 1.31-.45.95 1.38 1.19.16.92-4.56-.21-3.54.04-6.17.56-5.85 1.4.86 1.13 12.24-.39 16.21-1.05 2.78-1.55 3.11-2.47 1.64-.64-1-1.17-1.45-1.18-.99s-.36 1.72-.77 2.81c-.5 1.3-.07 1.97 1.26 1.97 4.15 0 9.98-14.9 7.43-18.98-.55-.88-1.14-2.5-1.31-3.6-.18-1.1-1.43-4.61-2.8-7.8-3.58-8.33-1.82-7.17 2.07 1.37l3.27 7.18.96-3.75c.69-2.66.8-1.94.4 2.5-.32 3.43-.68 9.73-.82 14-.15 4.6-.67 7.14-1.29 6.24-.76-1.12-1.57-.77-3.01 1.28-1.08 1.54-2.68 2.81-3.55 2.81-1.84 0-3.12 2.78-3.06 6.65.03 2.68.05 2.68 1.94.21 1.04-1.37 2.66-2.34 3.59-2.16.92.19 2.25-1.21 2.95-3.11.69-1.91 1.3-2.61 1.36-1.56.05 1.05-.86 3.27-2.03 4.94-1.16 1.66-2.19 3.89-2.28 4.95s-.58 3.33-1.08 5.05c-.73 2.49-.63 2.74.52 1.25 1.16-1.52 1.3-1.29.76 1.24-.37 1.72-1 7.33-1.4 12.48s-1.02 10.85-1.38 12.68.06 5.76.93 8.74c1.44 4.91 1.62 5.09 2.03 1.97.52-3.99 2.72-4.55 3.67-.93 1.4 5.39 2.42 1.97 2.67-9.05.15-6.35.48-12.38.73-13.41.26-1.03.86-3.56 1.34-5.61l.88-3.75 1.15 3.02c.77 2.02.7 3.31-.21 3.87-2.86 1.77-.2 49.63 3.11 56.04 2.35 4.54 1.76 6.28-1.27 3.76-1.54-1.27-2.54-1.33-4.27-.25-1.8 1.13-2.67.97-4.27-.79zm5.1-11.06c-.31-1.2-.57-.22-.57 2.18s.26 3.38.57 2.18.31-3.16 0-4.36zm-.86-6.55c0-1.38-.51-2.5-1.13-2.5s-.84 1.12-.48 2.5c.36 1.37.87 2.49 1.13 2.49s.48-1.12.48-2.49zm-2.38-11.61c-1.63-1.63-1.85.17-.46 3.71.86 2.2.91 2.2 1.36-.03.26-1.28-.15-2.93-.9-3.68zm-17.58-47.34c0-1.46-1.82-1.1-2.34.46-.26.78.16 1.2.93.94.78-.26 1.41-.89 1.41-1.4zm4.99-7.18c0-2.74-.44-4.99-.97-4.99s-.96 2.25-.96 4.99c0 2.75.43 4.99.96 4.99s.97-2.24.97-4.99zm460.34 54.87c-1.47-1.47-3-2.35-3.39-1.96-.39.4-1.39.16-2.22-.52-1.03-.87-2.47-.48-4.67 1.25-4.31 3.39-8.93 3.39-8.04.01.67-2.58-.88-3.45-2.24-1.25-1.21 1.97-3.12 1.46-3.12-.84 0-1.16-.63-3.87-1.42-6.03-1.2-3.32-1.07-4.33.87-6.59l2.28-2.67 3.99 2.47c3.52 2.18 4.07 2.24 4.74.5 1.07-2.78 3.53-.86 2.61 2.04-1.02 3.23 2.08 3.15 4.11-.11 1.83-2.92 4.03-3.28 4.03-.66 0 1.06.74 1.55 1.75 1.16.96-.36 2.13-.04 2.61.73.62 1 1.39.95 2.77-.2 1.7-1.41 1.83-.94 1.13 3.99l-.78 5.59 2.1-4.06c2.14-4.11 4.16-5.34 4.13-2.49-.03 2.33-5.38 11.27-7.08 11.83-.81.27-2.68-.72-4.16-2.19zm-22.92-13.36c-.42-.41-.71.32-.66 1.64.06 1.45.36 1.75.76.75.36-.9.31-1.97-.1-2.39zm-274.49 11.54c-.88-3.5-6.29-5.58-8.57-3.3-1.93 1.93-3.4 1.76-3.4-.39 0-1.1-1.54-1.94-3.99-2.18-4.61-.45-8.99-6.49-8.19-11.27.37-2.26.79-1.75 2.01 2.46 1.89 6.54 4.07 7.06 2.61.62-.63-2.81-.58-5.15.14-5.86.75-.75 1.2.39 1.24 3.12l.05 4.3 1.72-3.74 1.71-3.75.1 4.68c.13 5.9 2.06 6.09 3.14.32.86-4.59 1.89-5.16 5.67-3.14 1.48.8 2.12 2.23 1.81 4.05-.39 2.26-.2 2.13.98-.6 1.92-4.5 3.98-4.42 3.08.13-.4 1.96-.24 4.06.34 4.68.59.61 1.33 2.24 1.66 3.61.41 1.71.65 1.3.75-1.31.15-3.96 2.67-10.52 4.06-10.53.44-.01 1.16 1.95 1.61 4.35 1.17 6.25 3.64 5.65 2.58-.62-.96-5.71.73-6.67 2.75-1.56l1.35 3.43.13-3.35c.12-2.88.61-3.29 3.57-2.96 2.79.31 3.42.99 3.38 3.66-.03 1.8.36 3.27.85 3.27 1.22 0 2.21-3.4 2.81-9.62.65-6.67 1.46-7.86 5.18-7.55 2.44.2 3.06.94 3.06 3.65 0 4.01 1.91 5.58 4.34 3.56 1.27-1.05 2.42-1.07 4.28-.08 2 1.07 2.4 2.21 1.88 5.39l-.65 4.03 2.05-4.37c1.61-3.43 1.86-6.22 1.17-13.1-.48-4.8-1.23-14.91-1.67-22.45-.61-10.59-1.18-13.65-2.48-13.37-.93.19-2.79.01-4.12-.42-1.94-.61-2.14-1.13-.97-2.54.97-1.16 1.01-1.76.14-1.76-.73 0-1.63.49-2 1.09-1.38 2.24-12.69 4.82-18.81 4.3-3.43-.3-8.41-.49-11.05-.43-2.65.06-5.6-.54-6.56-1.34s-3.35-1.12-5.38-.71c-5.94 1.19-17.6-1.27-20.95-4.41l-2.99-2.82-4.12 4.91c-4.33 5.15-9.46 19.8-9.46 26.99 0 6.28 2.58 13.34 9.64 26.34 3.62 6.67 6.58 12.46 6.58 12.86 0 4.17-12.57-18.58-18.63-33.72l-3.9-9.72 4.57-9.74c2.52-5.36 5.89-10.98 7.49-12.48 4.1-3.85 9.13-13.93 9.73-19.5 1.33-12.26 4.23-20.15 7.44-20.26.6-.02.56.66-.1 1.52-.65.86-.94 4.26-.64 7.55.42 4.73.97 5.91 2.59 5.6 2.07-.39 2.22-1.02 4.85-19.36.61-4.28 1.49-8.16 1.96-8.63 1.02-1.02.14 12.74-1.07 16.71-.48 1.55-.32 2.81.33 2.81 1.83 0 4.09-5.86 4.09-10.59 0-2.33.6-4.61 1.34-5.06.73-.45 1.03-1.61.66-2.57s-.13-1.74.54-1.74c.66 0 1.21 3.46 1.21 7.69 0 9.3 1.56 8.55 2.61-1.24l.76-7.08.19 6.45c.22 7.79-.65 10.4-3.45 10.4-2.63 0-5.1 2.37-5.12 4.92 0 1.07-1.39 4.74-3.08 8.18-4.11 8.36-4.03 12.63.1 4.86 1.79-3.36 3.65-6.39 4.14-6.74.48-.34 1.54-2.59 2.34-4.99l1.47-4.36-.59 4.11c-.36 2.52-.11 3.83.64 3.36.68-.42 1.23-1.57 1.23-2.56s.6-1.79 1.34-1.79c.76 0 .99 1.06.53 2.49-1.21 3.84 1.74 3 3.3-.93.8-2.02 1.61-2.77 1.96-1.84.33.88-.32 3-1.44 4.71-2.28 3.48-1.21 10.21 2.17 13.59 1.62 1.61 2.07 1.57 3.8-.35 1.13-1.24 1.68-3.29 1.29-4.79-.38-1.44-.08-3 .67-3.46 1.67-1.03 1.81-5.68.17-5.68-.65 0-1.68.88-2.28 1.95-.89 1.59-1.34 1.65-2.44.31-1.49-1.8-.68-8.5 1.02-8.5.59 0 .72.9.3 2-.57 1.47-.15 1.87 1.6 1.51 2.01-.41 2.32-1.49 2.1-7.3l-.27-6.81 1.76 5.52c.97 3.04 1.49 5.97 1.16 6.5-.33.54-.81 4.63-1.06 9.11-.39 7.03-1.08 8.98-5.05 14.4-5.97 8.13-3.84 8.1 3.03-.04 5.22-6.19 6.37-9.51 6.44-18.65l.04-4.37 1.3 3.55c.94 2.56.9 4.45-.14 6.74-.96 2.11-1.04 3.61-.22 4.43s1.51.02 2.04-2.37c1.36-6.1 1.64-6.29 1.74-1.22.11 5.62.85 5.32 3.37-1.37l1.8-4.77-.77 6.24c-.6 4.87-.44 5.92.74 4.77.83-.81 1.8-5.44 2.15-10.29.34-4.86.99-8.83 1.43-8.83s.58 2.25.32 4.99c-.29 3.1.05 4.99.91 4.99.75 0 1.41 1.55 1.45 3.43l.08 3.44 1.28-3.12c.7-1.72.97-6.21.61-9.98-.44-4.48-.29-6 .43-4.37.6 1.37 1.13 3.79 1.18 5.37.05 1.8.61 2.56 1.49 2.02 1.39-.86.9-8.9-.94-15.38-.57-1.99-.41-2.73.47-2.19.73.46 1.75 3.77 2.26 7.37l.94 6.55 1.15-4.36c1.59-6.05 3.71-7.97 2.71-2.46-1.34 7.32-2.67 12.96-3.62 15.24-.52 1.28-.35 2.19.43 2.19 1.29 0 3.4-6.03 4.37-12.48.36-2.43.51-2.2.64 1.01.1 2.4.69 3.81 1.42 3.36.68-.43 1.24.4 1.24 1.84 0 2.14.41 2.39 2.27 1.4 2.51-1.34 5.87-10.08 4.92-12.77-.34-.93-1.27.68-2.07 3.6-.81 2.92-1.93 5.3-2.5 5.3-1.29 0-.2-6.33 1.45-8.42.68-.86.88-3.39.46-5.62-.53-2.76-.41-3.47.4-2.21 2.19 3.42 2.72.33.74-4.39-1.07-2.58-1.68-4.97-1.33-5.32.34-.34 1.48 1.43 2.53 3.94 2.57 6.15 2.76 17.95.37 22.65-1.04 2.06-2.26 8.17-2.7 13.59-.43 5.42-1.46 10.66-2.27 11.64-.95 1.14-1.04 2.08-.25 2.62.75.51.96 4.5.53 9.98-.39 5.02-.29 9.79.22 10.6.52.81.95 4.38.96 7.94s.5 7.77 1.09 9.36 1.44 8.5 1.9 15.36c.79 11.79.69 12.57-1.79 14.11-2.24 1.39-3.24 1.26-6.96-.94-5.34-3.15-5.45-3.15-5.45-.07 0 1.37-.7 2.5-1.56 2.51-.86 0-3.16.84-5.12 1.86s-3.99 1.6-4.5 1.28c-.52-.32-2.77-.06-4.99.58-3.45.99-4.14.82-4.65-1.13-.81-3.08-5.43-5.4-9.75-4.89-2.53.3-4.09 1.56-5.51 4.44-2.37 4.83-4.54 5.21-5.6.99zm30.36-8.52c-.08-2.63-.12-2.64-1.16-.24-1.47 3.44-1.47 4.66 0 3.75.69-.43 1.21-2.01 1.16-3.51zm-39.02-3.69c-.34-.85-.6.15-.57 2.21.02 2.05.3 2.75.62 1.53.32-1.21.3-2.9-.05-3.74zm62.81 1.58c0-1.37-.26-2.49-.58-2.49s-1.18 1.12-1.91 2.49c-1.07 1.99-.95 2.5.58 2.5 1.08 0 1.91-1.09 1.91-2.5zm0-6.79c0-.99-.56-2.14-1.24-2.57-.69-.42-1.25.39-1.25 1.8 0 1.42.56 2.57 1.25 2.57.68 0 1.24-.81 1.24-1.8zm-22.47-7.94c.01-1.61-.54-2.54-1.23-2.11-.69.42-1.24 2.56-1.23 4.75.02 3.03.31 3.53 1.23 2.11.66-1.03 1.22-3.17 1.23-4.75zm-15.69-42.17c1.08-.41 1.67-1.23 1.31-1.81-.8-1.29-4.32-.1-4.32 1.45 0 1.32.4 1.37 3.01.36zm-2.01-5.09c1.58-1.75 2.53-3.52 2.1-3.95-.43-.42-1.85.63-3.16 2.33-1.45 1.9-2.39 2.41-2.41 1.33-.01-.98.91-2.8 2.04-4.06 1.14-1.25 1.49-2.28.79-2.28-.71 0-2.62 1.99-4.25 4.41-1.98 2.93-3.7 4.22-5.15 3.86-1.2-.3-2.19-.13-2.19.37 0 3.81 8.18 2.47 12.23-2.01zm16.6-1.95c.66-1.2.73-2.18.14-2.18-.58 0-2.01 2.1-3.19 4.68-1.8 3.97-1.83 4.3-.14 2.18 1.1-1.37 2.53-3.48 3.19-4.68zm-35.86 2.56c1.5-2.39 1.22-2.86-2.33-3.95-2.56-.78-11.53 3.68-10.15 5.06.4.4 2.19-.24 3.99-1.42 1.79-1.17 3.64-1.73 4.09-1.24.46.49.13 1.14-.73 1.45s-1.56 1.11-1.56 1.79c0 1.96 5.23.64 6.69-1.69zm40.49-1.62c.78-1.72.99-3.12.45-3.12-1.53 0-3.96 2.83-3.96 4.61 0 2.69 2 1.84 3.51-1.49zm-55.52.46c1.5-.77 3.77-2.32 5.05-3.43 1.27-1.11 3.8-2.02 5.61-2.02 2.59 0 3.37-.67 3.66-3.12l.36-3.12-2.52 3.12c-3.06 3.79-3.3 1.57-.51-4.72 1.5-3.38 2.2-4.05 2.58-2.46.76 3.12 2.66 2.7 4.32-.94 1.59-3.48.8-5.15-1.71-3.58-.9.56-2.48 1.04-3.51 1.06s-2.84 2-4.02 4.4-3.06 5.49-4.17 6.86-2.48 3.29-3.04 4.26c-.56.96-2.05 1.83-3.31 1.92-2.1.16-2.93.88-2.93 2.55 0 .97 1.18.75 4.14-.78zm40.78-1.78c0-.99-.56-1.8-1.25-1.8s-1.25 1.15-1.25 2.57c0 1.41.56 2.22 1.25 1.79.69-.42 1.25-1.58 1.25-2.56zm4.85 1.23c.76.47 1.39.59 1.39.26 0-.32.3-1.39.67-2.36.43-1.11-.14-1.77-1.56-1.78-2.49-.02-4.07 1.76-4.07 4.59 0 1.55.19 1.57 1.09.15.6-.94 1.72-1.33 2.48-.86zm-51.01-5.05c0-1.03-.57-1.53-1.25-1.1-.69.42-1.25 1.61-1.25 2.64s.56 1.53 1.25 1.1c.68-.42 1.25-1.61 1.25-2.64zm26.2 1.94c0-.72-.57-.97-1.25-.55-.69.43-1.25 1.02-1.25 1.33 0 .3.56.55 1.25.55.68 0 1.25-.6 1.25-1.33zm40.15-4.29c.78-1.71 1.92-3.12 2.54-3.12s.77-.56.35-1.24c-.42-.69.11-2.5 1.17-4.02 3.2-4.57 2.21-5.43-1.81-1.58-2.07 1.98-3.55 4.19-3.29 4.91s-.31 2.85-1.26 4.74c-1.07 2.12-1.24 3.43-.43 3.43.72 0 1.95-1.4 2.73-3.12zm-40.15-4.08c0-3.34-3.13-.69-3.46 2.93-.33 3.48-.26 3.53 1.56 1.22 1.04-1.33 1.9-3.2 1.9-4.15zm21.73 3.88c1.15-2.98-.12-3.56-3.65-1.67-3.91 2.1-3.95 3.13-.12 3.45 1.79.14 3.31-.57 3.77-1.78zm26.24-4.79l.87-3.74-3.02 4.36c-1.67 2.41-2.76 4.85-2.44 5.43.91 1.65 3.63-1.92 4.59-6.05zm-19.5 3.43c1.68-3.29 3.01-11.37 1.49-9.04-.68 1.03-1.24 2.67-1.25 3.66-.01.98-1.24 3.09-2.73 4.68-2.26 2.4-2.37 2.89-.67 2.89 1.13 0 2.55-.99 3.16-2.19zm6.69-.94c1.95-4.28.33-5.39-2.72-1.87-2.99 3.44-3.18 5-.6 5 1.04 0 2.54-1.41 3.32-3.13zm3.47-11.22c0-.69-.54-.41-1.21.62-.66 1.03-1.2 2.43-1.2 3.12s.54.41 1.2-.62c.67-1.03 1.21-2.44 1.21-3.12zm-51.6-5.28c-.42-.41-.71.32-.66 1.64.06 1.45.36 1.75.75.75.37-.9.32-1.97-.09-2.39zm318.68 101.66c.02-.86.84-2.97 1.82-4.68 1.04-1.82 1.81-6.6 1.83-11.45.04-6.83-.46-8.96-2.79-11.85-3.73-4.64-7.38-12.74-6.43-14.27.41-.67.07-2.04-.76-3.03-1.13-1.36-1.17-3.13-.18-7.03 1.17-4.64 1.02-5.58-1.41-8.49-1.5-1.8-4.32-5.81-6.26-8.9-4.19-6.67-10.29-9.79-12.7-6.5-.86 1.17-1.8 1.51-2.24.8-.41-.67 1.74-3.98 4.79-7.36 3.05-3.37 5.17-5.04 4.7-3.71-.78 2.27-.57 2.24 3.12-.38l3.96-2.82-.47 3.51c-.25 1.92-1.08 5.08-1.85 7.01-1.87 4.7-1.92 4.6 2.32 4.6 3.41 0 3.61-.24 2.56-3.02-.84-2.22-.67-3.42.65-4.52 1-.82 1.82-2.69 1.83-4.15.01-2.06.27-2.26 1.14-.88 1.63 2.58 5.61-6.81 5.24-12.38-.21-3.33.03-3.92 1.01-2.5.7 1.03 1.29 3.16 1.3 4.73.02 3.4-4.52 12.74-6.2 12.74-.65 0-1.84 1.23-2.64 2.74-1.2 2.24-.53 1.99 3.7-1.36 2.84-2.24 5.16-5.13 5.16-6.4 0-1.28.56-2.67 1.25-3.09.73-.45 1.25.83 1.25 3.08 0 2.31-.77 4.15-1.91 4.59-1.2.46-1.64 1.6-1.17 3.07.56 1.78-.31 2.82-3.71 4.45-2.44 1.16-4.44 2.84-4.44 3.72 0 1.77 3.19 1.01 6.24-1.49 1.02-.84 3.13-1.91 4.67-2.38 1.55-.48 2.81-1.38 2.81-2.02s.7-1.15 1.56-1.13-.02 1.43-1.94 3.12c-2.86 2.52-3.09 3.08-1.25 3.1 1.91.02 1.97.2.38 1.23-1.03.66-3.18 1.22-4.78 1.23-1.78.01-2.7.62-2.36 1.58.59 1.66 2.15 1.77 7.14.53 1.81-.46 1.21.11-1.43 1.34-2.51 1.16-5.19 3.14-5.97 4.39-1.35 2.16-1.24 2.17 2.45.27 2.13-1.11 4.54-1.78 5.35-1.5.81.27 3.57-.82 6.13-2.42 4.52-2.84 10.94-3.96 10.94-1.91 0 .55-2.81 1.73-6.24 2.61-6.9 1.77-10.4 4.7-3.9 3.27 2.49-.55 3.9-.37 3.9.49 0 .74.84 1.35 1.87 1.35s1.87.56 1.87 1.24c0 .69-1.4 1.25-3.11 1.25-1.72 0-3.12.52-3.12 1.16s-.89 2.04-1.96 3.12c-2.51 2.5-.76 2.5 4.24.01 2.16-1.08 4.47-1.62 5.13-1.21 2.14 1.32-.03 4.23-3.76 5.05-1.99.44-3.93 1.3-4.31 1.91s-2.23.8-4.12.42c-2.37-.47-4.37.1-6.5 1.87-1.85 1.54-2.39 2.58-1.36 2.6 1.42.04 1.43.38.08 2.01-1.27 1.53-1.29 2.17-.11 2.91.91.56 1.16 1.89.62 3.33-.75 2.01-.59 2.15.96.89 1.02-.83 3-1.21 4.4-.84 2.42.63 2.47 1.06 1.12 8.99-.86 5.01-1.01 10.28-.4 13.21.85 4.07.6 5.34-1.5 7.57-1.38 1.48-2.51 3.43-2.51 4.35 0 1.03.89.65 2.33-1.01 3.55-4.1 5.62-3.22 2.46 1.05-2.79 3.78-8.58 5.27-8.49 2.19zm3.31-50.21c1.46-1.03 4.44-4.12 6.62-6.87 3.12-3.93 3.51-4.99 1.86-4.99-1.15 0-2.35.99-2.67 2.2-.31 1.21-2.18 3.12-4.14 4.24-3.48 2-7.36 7.28-5.35 7.28.56 0 2.21-.84 3.68-1.86zm-1.06-6.43c.92-.14 1.77-.44 1.89-.66.11-.22 1.21-1.6 2.43-3.06 2-2.38 2.02-2.73.23-3.42-1.09-.42-1.69-.28-1.33.31.37.58-.45 2.07-1.8 3.29-1.36 1.23-2.47 1.8-2.47 1.27 0-.54-.84-.27-1.87.58-2.26 1.87-2.52 4.29-.31 2.92.85-.54 2.31-1.09 3.23-1.23zm-6.04-10.29c0-.62-1.35-1.04-3-.94s-2.74.6-2.42 1.12c.81 1.32 5.42 1.17 5.42-.18zm.68-12.69c1.34-2.18-.19-2.64-1.9-.57-.99 1.18-1.08 1.9-.25 1.9.73 0 1.69-.6 2.15-1.33zm14.6 79.62c.29-.86 1.58-1.77 2.87-2.02 2.04-.39 2.13-.18.68 1.56-1.98 2.38-4.29 2.68-3.55.46zm-234.43-.67c-.8-.5-1.84-3-2.33-5.57-.61-3.26-1.53-4.68-3.02-4.68-3.15 0-3.5-.77-2.66-5.94.48-2.95 1.44-4.67 2.61-4.67 1.02 0 1.71.71 1.54 1.56-.17.86.2 1.56.83 1.56s1.44-.7 1.79-1.56c.49-1.16 1.07-1.05 2.29.43.9 1.08 2.34 1.74 3.2 1.45 2.05-.69 1.97.25-.46 5.05l-2.02 3.99 4.2-3.74c4.13-3.68 9.03-6.86 10.56-6.86.42 0 .4.98-.06 2.18-.66 1.75-.52 1.87.74.62 2.67-2.64 3.78-1.74 3.39 2.74-.2 2.37.03 4.71.53 5.2.49.5.9-.77.9-2.81 0-3.72 2.93-9.16 4.22-7.86.85.84-1.04 13.38-2.19 14.53-.46.45-1.45.2-2.21-.55-.76-.76-2.15-1.09-3.09-.72-1.06.4-1.78-.23-1.87-1.66-.13-2.17-.18-2.17-.73-.07-.46 1.78-1.44 2.1-4.77 1.58-3.55-.57-4.62-.12-7.07 3.01-1.68 2.15-3.48 3.31-4.32 2.79zm-121.45-1.52c0-.68-1.37-1.24-3.05-1.24-1.67 0-3.37-.54-3.78-1.2-.4-.65-1.56-.88-2.56-.49-1.01.39-2.16-.18-2.58-1.3-.42-1.09-1.31-1.66-1.97-1.25s-1.91-.24-2.79-1.43c-1.5-2.06-1.63-2.06-2.42.02-.65 1.68-1.23 1.86-2.53.78-1.28-1.06-2.07-.95-3.25.47-.85 1.03-2.09 1.54-2.74 1.14-.66-.41-1.96.3-2.89 1.57-1.61 2.18-1.75 2.19-2.55.11-.47-1.21-.54-3.41-.16-4.88.9-3.42-.89-6.78-4.05-7.6-1.64-.43-2.62.04-2.9 1.4-.37 1.74-.65 1.67-1.83-.47-.77-1.38-1.77-4.52-2.23-6.97-.77-4.1-.61-4.44 2.04-4.24 1.88.14 3.17 1.25 3.72 3.23.83 2.96.85 2.95.97-.43.11-3.12.35-3.29 2.62-1.88 1.37.86 2.49 2.27 2.49 3.13 0 1.73 2 2.14 2.95.6.33-.54 2.33-1.11 4.44-1.27 3.82-.29 3.84-.26 3.84 5.96 0 3.45.56 6.26 1.25 6.26.68 0 1.25-2.21 1.25-4.92 0-6.44 2.44-8.01 2.66-1.7.1 2.89.38 3.65.71 1.94.78-4.04 2.41-3.45 3.45 1.25l.89 4.06 1.25-3.48c1.53-4.23-1.78-12.11-8.1-19.3-12.06-13.72-13.75-17.33-10.38-22.17.95-1.36 2.13-4.9 2.63-7.88.81-4.84.49-6-3.04-10.92-2.18-3.03-4.24-7.61-4.58-10.18-1.04-7.79-1.71-10.29-2.76-10.29-.54 0-2.62 3.51-4.61 7.8s-3.74 7.99-3.89 8.23-.83.1-1.51-.33c-.75-.46-.83-2.17-.19-4.39 1.17-4.11-1.05-12.14-3.86-13.91-.95-.61-1.16-1.11-.45-1.12.7-.01 2.53.85 4.05 1.92 3.46 2.42 3.67.62.26-2.29-3.51-3.01-5.16-2.7-8.72 1.6-1.7 2.05-3.79 3.74-4.66 3.74-1 0-1.57 1.81-1.57 4.99 0 8.13-2.23 5.68-3.12-3.43-.45-4.63-1.34-10.13-1.98-12.21-1.31-4.27-1.38-7.25-.74-29.27.25-8.58 1.04-17.35 1.76-19.48 1.57-4.65 5.27-9.22 7.47-9.22 2.58 0 1.84 2.05-1.52 4.25-1.95 1.28-3.12 3.22-3.12 5.15 0 1.71-.65 4.16-1.45 5.43-1.11 1.78-1.08 4.05.11 9.66.87 4.03 1.55 8.17 1.53 9.2-.08 3.59 3.75 14.83 5.57 16.34 3.19 2.65 6-3.2 6.76-14.06.57-8.24 1.12-10.03 4.01-12.91 1.84-1.84 3.73-4.55 4.19-6.03.97-3.06 4.02-5.7 6.65-5.76 1.26-.03 1.07.49-.62 1.73-1.33.97-2.03 2.16-1.55 2.63.47.48-.79 2.26-2.81 3.96s-3.68 3.98-3.68 5.07c0 1.59.56 1.45 2.89-.74 4.86-4.56 5.06-3.02.33 2.5-2.46 2.87-4.45 5.82-4.42 6.55.02.74.78.36 1.69-.84 2.43-3.2 3.74-2.67 1.46.59-1.07 1.52-1.95 3.2-1.95 3.74 0 1.68 3.37 1.05 5.02-.93 3.04-3.66 2.79-.63-.28 3.42-3.9 5.14-5.07 10.8-2.73 13.14.95.95 1.74 2.72 1.74 3.92 0 1.21 1.4 3.51 3.12 5.12 1.71 1.61 3.11 3.74 3.11 4.73 0 2.4 5.17 11.49 6.54 11.49.59 0 1.95 2.1 3.03 4.67 2.24 5.36 1.58 16.68-1.48 25.35-2.37 6.72-2.43 6.32 1.63 10.6 5.97 6.3 14.69 17.21 17.41 21.76 5.75 9.66 10.3 19.42 9.73 20.9-.71 1.86-3.17 2.1-3.17.31zm-29.19-14.63c-.41-.42-.71.32-.65 1.64.06 1.45.35 1.75.75.75.36-.9.32-1.98-.1-2.39zm-12.48-8.73c-.41-.42-.7.32-.65 1.63.06 1.46.35 1.75.75.76.36-.9.32-1.98-.1-2.39zm13.2-54.26c-.89-.9-1.47-.97-1.47-.19 0 1.67 1.47 3.14 2.31 2.31.35-.35-.02-1.31-.84-2.12zm-27.67-21.09c0-.68-.56-.9-1.25-.47-.69.42-1.25 1.33-1.25 2.02 0 .68.56.9 1.25.47.69-.42 1.25-1.33 1.25-2.02zm0-5.54c0-.51-1.13.08-2.5 1.32-1.37 1.25-2.49 3.09-2.49 4.11 0 1.19.89.71 2.49-1.33 1.37-1.74 2.5-3.59 2.5-4.1zm13.72 3.12c0-.64-2.1-1.11-4.68-1.03-2.64.08-3.59.41-2.18.75 1.37.33 3.01 1.08 3.63 1.67 1.28 1.22 3.23.38 3.23-1.39zm-.62-6.16c-.43-.69-1.02-1.25-1.32-1.25-.31 0-.55.56-.55 1.25 0 .68.59 1.25 1.32 1.25.72 0 .97-.57.55-1.25zm190.95 104.17c1.66-11.09 5.55-15.94 5.55-6.93 0 3.51-.91 5.93-3.15 8.42l-3.15 3.5.75-4.99zm136.53 1.56c-.01-1.54-.57-3.65-1.23-4.68-.98-1.52-1.21-1.36-1.23.87-.02 3.02-2.34 5.12-3.59 3.26-1.23-1.84-5.23-2.99-6.83-1.97-2.12 1.34-8.31 1.48-8.31.18 0-.61-1.2-.4-2.66.46-2.07 1.22-2.78 1.24-3.21.06-.43-1.19-1.08-1.19-3.01 0-2.11 1.3-2.8 1.07-4.87-1.61-2.76-3.56-3-6.17-1.16-12.79.76-2.72 2.08-4.67 3.16-4.67 1.49 0 1.58.5.46 2.6-.76 1.43-1.06 2.93-.67 3.32.4.4.73.07.73-.73s.85-1.45 1.89-1.45c1.43 0 1.7.84 1.1 3.43-.77 3.35-.74 3.37 1.32.94 2.04-2.42 2.09-2.36 1.45 1.87-.57 3.78-.45 4.04.85 1.95 5.31-8.54 13.98-11.36 9.56-3.12-.71 1.33-.8 2.41-.2 2.41s1.73-1.4 2.52-3.11c.78-1.72 1.99-3.12 2.69-3.12 1.6 0 1.61 1.39.03 5.84l-1.25 3.51 2.85-3.43c3.15-3.77 4.64-4.33 4.64-1.73 0 3.19 6.18.8 7.18-2.78 3.18-11.3-1.63-58.35-5.7-55.83-1.86 1.15-13.34 1.25-13.34.12 0-.66 2.49-1.37 5.53-1.58 5.37-.38 11.32-4.53 11.32-7.91 0-.71 1.61-2.89 3.58-4.86s3.89-4.79 4.28-6.26c.67-2.57.6-2.59-1.71-.5-2.16 1.95-3.62.92-1.58-1.11 1.27-1.28 5.41-13.56 5.41-16.07 0-1.23-.56-2.23-1.25-2.23s-1.19-2.11-1.12-4.68l.13-4.68 1.24 4.68c.69 2.57 1.76 4.68 2.39 4.68 1.39 0 .18 5.53-2.27 10.38-1.13 2.24-1.35 4.06-.62 4.99 1.96 2.48 2.59 8.79 1.15 11.44-.75 1.38-1.53 8.68-1.73 16.23s-.53 20.46-.73 28.7c-.21 8.23-.79 15.64-1.31 16.46-.51.82-.99 6.15-1.05 11.85-.1 9.72-1.14 13.48-3.72 13.48-.6 0-1.1-1.26-1.11-2.81zm5.1-81.57c2.78-3.03 2.81-3.18.37-1.91-1.47.76-2.99 2.24-3.4 3.29-1.02 2.66-.45 2.4 3.03-1.38zm72.58 82.25c-2.15-.41-2.81-1.4-2.81-4.19 0-4.26 2.14-4.86 3.56-1.01.92 2.47 1.26 2.3 5.19-2.67 5.99-7.56 12.89-20.33 14.14-26.18.79-3.67-1.19-6.77-5.11-8.01-3.28-1.04-5.94-5.17-4.08-6.32 1.17-.72 8.93 3.96 9.8 5.91.74 1.67 3.66.99 4.44-1.04 2.5-6.5-.41-18.92-5.03-21.5-1.15-.65-1.65-1.79-1.14-2.62 1.42-2.29 4.26.71 7.86 8.3 3.83 8.1 3.52 17.42-.75 21.96-1.46 1.57-3.59 5.62-4.73 9.01-1.13 3.39-3.1 7.65-4.37 9.47s-2.31 3.89-2.31 4.59-1.39 2.92-3.08 4.93c-1.7 2.02-3.65 5.15-4.34 6.96-1.24 3.27-1.82 3.46-7.24 2.41zm-350.04-4.77c-1.15-2.43-2.1-5.28-2.1-6.35 0-3.21 3.09-1.15 3.51 2.34.21 1.78 1.19 3.91 2.18 4.73 2.24 1.87 2.32 3.69.16 3.69-.91 0-2.59-1.99-3.75-4.41zm143.28-.9c1-6.03 1.5-7.17 3.16-7.17.65 0 1.23 1.54 1.3 3.43.13 3.4.14 3.39 1.43-.62 1.21-3.77 3.44-5.61 3.44-2.85 0 .66.9.86 2.01.44 1.7-.66 1.87-.13 1.1 3.47-1.14 5.29-1.03 5.19-5.56 5.35-2.07.08-4.03.84-4.36 1.7-.33.85-1.23 1.56-2 1.56-.95 0-1.11-1.7-.52-5.31zm21.26 3.34c-1.32-.97-2.13-2.02-1.81-2.34.9-.89 6.09.71 6.09 1.88 0 1.98-1.92 2.19-4.28.46zm129.75-.84c-.25-.86-.89-2.68-1.4-4.06-.94-2.49-.94-2.49-1.49 0-.3 1.38-1.13 3.06-1.83 3.75-.88.85-1.06-.74-.58-4.99.39-3.44.25-8.49-.32-11.23l-1.03-4.99-.3 6.86c-.16 3.77-.68 8.54-1.17 10.6l-.89 3.75-1.58-3.25c-2.88-5.94 1.94-33.88 4.92-28.46.53.97 1.61 5.94 2.39 11.05s2.03 10.02 2.77 10.91c.75.9 1.52 3.87 1.72 6.62.37 4.84-.26 6.62-1.21 3.44zm-208.26-.67c-.35-.55-.12-1.83.52-2.82.63-1 1.17-6.31 1.21-11.8.05-5.48.56-12.22 1.14-14.97.59-2.74 2.52-11.88 4.29-20.3 3.12-14.88 5.25-21.18 6.66-19.77.38.38.09 2.26-.64 4.16-.74 1.91-1.98 7.69-2.77 12.83-.78 5.15-2.46 13.85-3.72 19.34-3.21 13.98-4.16 21.83-2.63 21.83.69 0 1.81-.97 2.47-2.17.67-1.19 1.55-1.84 1.96-1.44.83.84-5.13 14.44-6.78 15.46-.6.37-1.37.21-1.71-.35zm70.97-.22c-.4-.66-.07-2.27.75-3.57 1.26-2.02.83-3.32-2.76-8.48-2.34-3.35-4.68-6.28-5.19-6.5-.52-.23-.94-1.22-.94-2.19s-.69-1.76-1.53-1.76c-1.93 0-10.89-9.72-12.26-13.28-.56-1.47-.74-3.74-.4-5.03s-.54-5.06-1.96-8.36c-1.41-3.3-2.26-6.5-1.88-7.12s-.18-.79-1.24-.38c-1.07.41-1.94.14-1.94-.61s1.45-1.72 3.23-2.17c4.6-1.15 6.68 1.57 7.01 9.15.22 5.09.62 6.17 1.88 5.12 1.2-1 1.61-.82 1.61.69 0 1.11.63 2.02 1.4 2.02.96 0 .9.6-.18 1.9-1.98 2.4-.64 3.95 1.72 1.99 1.37-1.13 1.92-1.04 2.49.45.4 1.04.43 2.67.07 3.62-.42 1.09.51 2.01 2.53 2.52 2.13.53 3.2 1.65 3.2 3.35 0 1.99.55 2.38 2.49 1.77 2.92-.93 3.61 2.42.72 3.53-2.33.89-1.25 4.89 3.2 11.91 3.25 5.14 3.35 5.68 1.61 9.05-2.01 3.88-2.5 4.21-3.63 2.38zm-9.44-27.6c-.77-1.43-1.71-2.29-2.1-1.9-.38.38.01 1.55.88 2.6 2.25 2.7 2.85 2.35 1.22-.7zm-2.44-7.53c0-.68-.56-.9-1.25-.47-.68.42-1.25 1.33-1.25 2.01 0 .69.57.9 1.25.48.69-.42 1.25-1.33 1.25-2.02zm26.82 34.61c-2.05-1.5-2.15-2.05-.71-3.79.95-1.14 2.65-1.73 3.87-1.34 1.94.62 2.16-.24 2.01-7.77-.23-10.98 1.75-11.05 2.22-.08.52 11.79-2.29 16.71-7.39 12.98zm18.09-1.4c0-1.98-.7-3.12-1.92-3.12-1.06 0-1.77.7-1.57 1.56s-.2 1.56-.88 1.56c-.71 0-1.08-2.73-.88-6.34.2-3.48-.13-9.49-.74-13.35-.66-4.26-.64-7.49.06-8.19.72-.71.69-1.45-.07-1.92-.68-.42-1.94 1.06-2.81 3.29-1.39 3.59-1.62 3.74-2.07 1.32a3.799 3.799 0 00-3.23-3.12c-1.95-.27-2.84-1.39-3.13-3.93-.42-3.67.01-3.75 6.83-1.19.93.35 1.81-2.24 2.5-7.34l1.06-7.89-3.75-.4c-6.94-.74-5.9-2.44 2.07-3.34 11.47-1.3 12.44-2.36 4.61-4.98-3.67-1.24-7.69-2.34-8.93-2.46-1.23-.12-3.05-1.78-4.05-3.7-2.14-4.12-2.25-4.87-.56-3.83.68.42 1.25.23 1.25-.43s1.82-2.37 4.05-3.79c2.23-1.43 3.48-2.61 2.77-2.62-.7-.01-2.53.85-4.05 1.92-1.98 1.38-2.77 1.5-2.77.41 0-.89-1.21-.41-2.84 1.13l-2.84 2.66-4.77-4.36c-2.71-2.49-4.48-5.11-4.1-6.09.37-.95-.14-2.03-1.13-2.41-.98-.38-1.83-2.25-1.89-4.16-.14-5.26-2.9-11.88-5.57-13.37-3.99-2.23-5.58-4.91-4.84-8.19.57-2.51.4-2.82-.88-1.56-2.13 2.09-3.58 1.97-3.58-.31 0-1.03-.91-1.87-2.02-1.87-1.38 0-1.82-.77-1.39-2.41.44-1.68.11-2.2-1.1-1.73-2.18.83-2.33-2.84-.17-4.22 1.77-1.13 2.45-5.37.87-5.37-.57 0-1.82 1.12-2.78 2.48-1.72 2.46-1.76 2.46-4.27-.31-1.4-1.53-2.89-4.26-3.31-6.06s-2.74-4.78-5.15-6.61c-2.42-1.84-4.39-4.37-4.39-5.63 0-1.25-.84-2.98-1.87-3.83s-1.87-2.12-1.87-2.82c0-1.93-5.34-6.45-10.52-8.91-6.05-2.87-4.72-4.12 2.09-1.97 6.61 2.08 8.37 3.4 9.9 7.41l1.2 3.17 3.62-4.36c4.13-4.98 5.08-3.36 1.05 1.76-1.45 1.85-2.28 3.71-1.86 4.14.43.42 1.6-.31 2.6-1.63 2.4-3.16 2.39-1.36 0 3.27-1.05 2.03-1.46 3.68-.92 3.68s1.54-1.25 2.21-2.79c.79-1.78 2.46-2.88 4.63-3.04 3.06-.22 3.24-.01 1.88 2.17-1.88 3.01-3.58 3.17-2.57.23.61-1.77.37-1.71-1.25.31-2.15 2.69-2.69 6.34-1.08 7.33 1.4.87 3-.43 6.86-5.57 3.74-4.98 4.35-7.67 1.5-6.57-1.03.39-1.87.08-1.87-.71 0-.78.82-1.73 1.83-2.12 2.49-.96 3.89-8.98 2.07-11.89-1.13-1.82-1.07-2.3.32-2.3 2.5 0 2.94 2.06 2.39 11.22-.3 4.96-1.31 9.26-2.61 11.08-1.17 1.64-2.78 4.11-3.58 5.48-.79 1.38-2.07 2.89-2.83 3.36-1 .61-.84 2.17.52 5.45 1.06 2.52 2.23 4.58 2.6 4.58s.39-.47.03-1.06c-.77-1.24 4.18-6.9 5.17-5.91.38.37-.04 1.54-.92 2.6-1.35 1.63-1.28 1.81.44 1.15 1.13-.43 2.05-1.44 2.05-2.24s2.21-4.81 4.9-8.9c3.67-5.59 4.77-8.39 4.39-11.2l-.52-3.76 1.4 4.02c1.15 3.3 1.03 4.58-.69 7.21-1.15 1.75-1.75 3.75-1.33 4.43 1.04 1.68-1.68 9.71-4.84 14.29-2.01 2.9-2.1 3.35-.42 2 1.19-.96 3.95-4.33 6.12-7.49 3.4-4.93 4-6.98 4.25-14.48.39-11.22.3-10.6 1.5-10.6.56 0 .98 4.18.93 9.29-.1 10.38 1.77 10.85 2.74.69.44-4.56 1.08-6.2 2.24-5.75.9.34 1.9-.05 2.23-.87.34-.82.65-.23.71 1.32.12 3.47 2.59 3.77 2.59.31 0-1.37.6-2.49 1.32-2.49.73 0 .98.56.55 1.24-.42.69-.17 1.25.55 1.25.73 0 1.32-.56 1.32-1.25 0-.68.57-1.24 1.25-1.24.69 0 1.25.84 1.25 1.87 0 2.86 2.1 2.22 3.06-.94.47-1.54 1.11-2.2 1.42-1.46.4.94 2.89.85 8.34-.29 4.27-.9 11.27-1.64 15.56-1.65 4.29-.02 7.8-.53 7.8-1.13 0-.61 1.12-1.4 2.5-1.76 1.85-.48 2.49-.04 2.49 1.73 0 2.93 1.12 3.04 3.11.31 1.34-1.84 1.61-1.68 2.38 1.39.48 1.91.61 3.73.29 4.05-.33.32-3.86-.09-7.86-.93-8.7-1.8-26.71-.74-30.73 1.83-1.51.96-5.27 2.46-8.36 3.33-8.14 2.3-10.91 5.61-11.36 13.61-.06 1.03-.9 3.66-1.88 5.84-1.52 3.41-1.53 4.7-.05 8.98 1.38 4 1.4 5.12.14 5.61-2.08.8-3.07-.31-3.07-3.44 0-4.57-3.84.72-4.6 6.31-.54 4.04-.09 5.6 2.44 8.54l3.1 3.6.92-4.2c.51-2.31 2.55-5.68 4.53-7.49 1.99-1.82 4.87-5.77 6.41-8.79 1.54-3.01 3.62-5.74 4.63-6.05 1.43-.44 1.33.18-.45 2.9-1.42 2.17-1.8 3.77-1 4.26.82.5.88 2.77.18 6.39-.59 3.08-1.1 6.08-1.13 6.65-.03.58 2.3-.69 5.19-2.81 4.68-3.44 5.37-3.64 6.41-1.78 1.41 2.51-2.76 6.45-4.26 4.02-.58-.93-1.74-.52-3.51 1.25-2.84 2.84-3.44 5.14-1.35 5.14.89 0 .89.75 0 2.41-1.74 3.26-1.56 7.73.42 10.34 1.51 1.99 1.91 1.87 5.19-1.56 3.29-3.44 2.91-5.53-.41-2.21-1.17 1.17-1.5 1.16-1.5-.04 0-.84.84-1.86 1.87-2.25 2.39-.92 2.44-2.95.06-2.95-.99 0-2.38.99-3.08 2.19-1.18 2.03-1.27 2.03-1.31.04-.07-4.12 6.7-5.89 13.15-3.44 3.26 1.24 3.29 1.35 1.13 3.74-1.22 1.36-2.87 2.46-3.66 2.46s-3.34 1.97-5.66 4.37c-2.33 2.4-3.74 4.37-3.13 4.37s.02.82-1.31 1.83c-3.36 2.54-1.8 2.35 4.61-.56 2.99-1.36 6.56-2.42 7.94-2.36 1.47.06.61.69-2.09 1.53-2.51.79-5.04 1.94-5.61 2.56-.6.66-.18.83 1.02.4 1.14-.4 3.1.07 4.37 1.05 2.23 1.73 2.23 1.84-.19 3.65-4.71 3.53-8.11 7.13-8.07 8.56.02.78.58.49 1.25-.66 1.41-2.41 9.77-7.85 10.68-6.94.34.33-1.38 1.78-3.81 3.22-2.43 1.43-4.42 3.22-4.42 3.98 0 .75 1.63.21 3.63-1.21 4.67-3.32 6.69-3.31 2.61.02l-3.12 2.55 3.11-.88c2.8-.8 2.94-.67 1.38 1.2-2.32 2.79-.7 4.16 2.05 1.74 1.21-1.06 3.42-2.3 4.93-2.75 3.23-.99 10.37-8.77 10.37-11.32 0-3.29 7.64-10.76 10.61-10.37 2.75.36 6.85-2.09 6.85-4.09 0-.58-.82-.74-1.81-.36-1.51.58-1.62-.02-.63-3.46.66-2.29 1.19-4.3 1.19-4.48s.6-.32 1.34-.32c.79 0 .99 1.08.49 2.65-.52 1.63-.22 3.04.77 3.65 1.24.77.83 2.13-1.77 5.88-3.97 5.74-6.28 12.81-4.69 14.4.61.61 3.27 1.4 5.92 1.75 2.64.35 5.22 1.28 5.72 2.06.54.84.93.25.94-1.43.01-1.58 1.16-4.09 2.56-5.59 1.4-1.51 2.83-4.15 3.18-5.88 1.59-7.84 3.51-12.34 5.48-12.85 1.64-.43 2.31-2.43 2.86-8.4.39-4.31.16-9.3-.51-11.08-1.15-3.07-1.1-3.13.93-1.13 2.15 2.12 2.66 10.83.97 16.59-.54 1.84.29 1.4 3.14-1.63 2.17-2.32 3.93-5.61 4.01-7.49.1-2.37.32-2.67.74-1.02.33 1.28-.09 4.81-.94 7.83-.84 3.03-1.13 5.91-.64 6.4 1.42 1.42 4.44-3.59 4.44-7.37 0-1.89.59-3.79 1.31-4.24.87-.54 1.08 1.06.63 4.78-.93 7.72-1.89 9.77-4.41 9.35-2.38-.41-9.61 7.31-8.18 8.73.48.49 2.02-.52 3.41-2.24 1.4-1.71 3.17-3.19 3.95-3.28.78-.1 2.1-.24 2.94-.31.84-.08 2.05-1.97 2.7-4.2 1.04-3.63 1.18-3.73 1.28-.9.06 1.73-.76 4.4-1.83 5.92-2.26 3.22-1.61 3.65 1.23.81 1.72-1.71 1.96-1.72 1.96-.07 0 1.04-.53 2.21-1.17 2.61-2.09 1.29-1 5.34 1.28 4.75 1.22-.32 1.87-1.42 1.57-2.63-.29-1.14.61-4.28 2-6.98 1.38-2.7 2.25-5.18 1.91-5.51-.33-.33-.6.05-.6.85s-.58 1.46-1.29 1.46c-.88 0-.87-.79.03-2.47.72-1.36.95-4.03.5-5.93l-.81-3.45 2.74 2.85c2.15 2.23 2.57 3.69 1.91 6.69-.65 2.94-.45 3.72.84 3.29.93-.31 1.87-1.64 2.09-2.96.82-4.91 4.33-12.92 5.38-12.27 2.65 1.64.63 9.06-5.84 21.51-7.92 15.25-8.16 15.55-10.94 14.49-1.82-.7-1.74-1.05.62-2.97 1.66-1.34 2.18-2.48 1.35-2.98-.72-.45-2.92 1-4.88 3.23-2.76 3.15-4.59 4.07-8.24 4.16-4.78.11-6.97 1.13-5.53 2.56.44.44 1.58.15 2.54-.64 1.79-1.49 5.81-.7 5.81 1.14 0 1.41-5.06 3-8.11 2.56-4.65-.67-7.84-5.11-3.68-5.11 1.06 0 2.75-1.94 3.74-4.32 2.22-5.31 2.29-7.28.25-6.6-.85.29-1.55 1.32-1.56 2.29-.01 2.86-3.39 6.65-8.69 9.73-3.86 2.24-6.03 2.71-9.83 2.1-5.9-.95-15.39-5.12-16.04-7.06-.26-.77-2.07.91-4.04 3.75-1.96 2.83-4.87 5.47-6.45 5.87-4.45 1.12-6.11 3.77-2.88 4.61 3.35.88 2.52 3.69-1.35 4.6-2.83.67-2.95 1.19-3.34 14.39-.35 11.72.71 22.8 2.78 29.06.42 1.25 1.42 1.02 4.18-.94 4.14-2.95 5.63-3.27 4.79-1.02-.32.86-.14 2.68.41 4.05.8 2.03 1 1.75 1.07-1.56.1-4.67 2.14-5.35 3.79-1.24 1.02 2.52 1.14 2.39 1.21-1.36.1-5.17 2.99-4.77 3.66.52l.47 3.64 1.49-4.29c2.36-6.79 4.53-6.35 3.78.76l-.64 6.03 2.47-5.3c1.36-2.92 3.32-5.31 4.35-5.31 1.2 0 1.61.72 1.14 1.95-.51 1.34.73.94 4-1.28 3.11-2.11 5.17-2.8 5.97-2 .81.8.77 1.78-.1 2.84-.72.89-1.51 3.02-1.75 4.73-.28 2.02-1.23 3.12-2.69 3.13-1.25.01-3.21 1.26-4.37 2.79-1.43 1.89-4.01 3.04-8.03 3.59-5.41.74-5.93.59-5.93-1.74 0-3.11-2.6-2.95-6.29.39-2.33 2.11-2.85 2.18-4.11.56-2.23-2.86-8.05-2.79-8.96.1-1.1 3.44-3.1 2.98-3.1-.71zm39.93-9.5c0-.69-.56-.9-1.25-.48s-1.25 1.33-1.25 2.02c0 .68.56.9 1.25.48.69-.43 1.25-1.34 1.25-2.02zm22.08-66.29c2.46-2.71 3.42-7.18 1.54-7.18-.5 0-2.08 2.25-3.51 4.99-2.88 5.52-1.97 6.52 1.97 2.19zm-9.51-11.27c2.46-4.66 2.46-4.7.04-3.19-2.7 1.69-5.14 6.23-5.11 9.53.02 1.83.19 1.87 1.3.25.7-1.03 2.4-3.99 3.77-6.59zm2.31.98c0-.69-.8.15-1.78 1.87-.98 1.71-1.78 3.68-1.78 4.36 0 .69.8-.15 1.78-1.87.98-1.71 1.78-3.68 1.78-4.36zm-80.1-.14c-.87-.87-4.65.9-4.65 2.18 0 .64 1.17.54 2.6-.23s2.36-1.64 2.05-1.95zm106.39-.17c0-.34-.84.07-1.87.93-1.03.85-1.87 1.83-1.87 2.18 0 .34.84-.08 1.87-.93 1.03-.86 1.87-1.84 1.87-2.18zm-21.25-8.35c-.02-.73-.86-.24-1.87 1.1-1.01 1.33-1.82 3.01-1.79 3.74.02.73.86.23 1.87-1.1s1.81-3.02 1.79-3.74zm25.82-2.26c-.35-.86-.63-.16-.63 1.56 0 1.71.28 2.42.63 1.56.34-.86.34-2.26 0-3.12zm-108.12-1.01c0-.73-.56-.98-1.25-.55-.69.42-1.25 1.02-1.25 1.32s.56.55 1.25.55 1.25-.59 1.25-1.32zm-5.86-2.49c.43-1.64.14-2.39-.79-2.08-1.8.59-2.73 4.64-1.08 4.64.66 0 1.5-1.15 1.87-2.56zm-15.35-12.56c0-.68-.56-.9-1.25-.47-.69.42-1.25 1.33-1.25 2.02 0 .68.56.9 1.25.47.69-.42 1.25-1.33 1.25-2.02zm-4.28-.95c-.37-.61.44-2.52 1.8-4.25 3.52-4.48 3.07-5.3-1.05-1.92-3.33 2.74-4.1 7.27-1.24 7.27.64 0 .87-.49.49-1.1zm9.27-10.13c.73-1.37 1.05-2.49.71-2.49s-1.23 1.12-1.96 2.49c-.73 1.38-1.05 2.5-.71 2.5s1.22-1.12 1.96-2.5zm-9.46-3.29c.65-1.72.47-1.79-1.12-.47-2.16 1.79-2.39 2.52-.78 2.52.61 0 1.46-.93 1.9-2.05zm16.13-4.86c-.99-2.58-1.68-2.27-1.68.74 0 1.41.54 2.24 1.19 1.83.66-.4.88-1.56.49-2.57zm-11.66-4.8c0-.69-.83-.16-1.83 1.17-1.01 1.34-1.84 2.99-1.84 3.67 0 .69.83.16 1.84-1.17 1-1.33 1.83-2.98 1.83-3.67zm-53.65 136.01c0-2.98 4.28-9.52 6.23-9.52 1.25 0-.95 8.68-2.77 10.91-1.98 2.44-3.46 1.84-3.46-1.39zm-321.89-2.19c-2.476-3.92-2.609-5.34-1.927-20.43.403-8.92 1.058-18.89 1.457-22.15.478-3.92.258-5.93-.65-5.93-.755 0-1.373 1.09-1.373 2.43 0 1.33-.561 2.76-1.248 3.19-.686.42-1.247-.39-1.247-1.8s-.562-2.57-1.248-2.57c-.744 0-1.263 4.91-1.285 12.17-.053 16.84-2.681 12.15-3.277-5.85-.239-7.25-.756-17.11-1.148-21.91-.438-5.37.112-14.76 1.425-24.33 1.175-8.58 2.228-22.9 2.338-31.82.168-13.49.597-16.84 2.549-19.96 3.138-5 8.313-10.6 9.796-10.6.659 0 3.608-1.98 6.554-4.39 4.769-3.91 6.082-4.37 11.981-4.16 3.643.13 9.462-.18 12.931-.69 6.103-.88 19.9 1.31 26.13 4.16 1.37.63 4.11 1.49 6.09 1.93 1.97.43 5.19 2.58 7.16 4.77 1.96 2.2 5.48 5.96 7.82 8.36 2.33 2.4 4.98 6.61 5.88 9.36.9 2.74 2.3 5.83 3.11 6.86 2.44 3.11 6.96 12.67 6.3 13.33-1.14 1.14-5.78-1-6.97-3.22-.64-1.2-1.44-4.45-1.78-7.22-.9-7.49-3.82-13.52-9.14-18.86-2.61-2.63-5.75-6.29-6.99-8.13-1.79-2.68-3.21-3.35-7.1-3.35-2.67 0-5.16-.5-5.54-1.11-1.4-2.26-17.982-5.4-24.076-4.56-3.274.45-8.714.79-12.089.75-3.403-.04-7.015.66-8.109 1.59-1.086.91-4.582 3.15-7.769 4.97C24.43 43.36 20.806 51.6 23.345 66.71c1.373 8.18 1.315 10.13-.453 15.21-5.873 16.89-5.692 37.93.379 44 2.089 2.09 2.293 2.1 2.826.13.612-2.25.304-9.65-1.076-25.82-.846-9.91.416-16.84 3.063-16.84.77 0 .849 1.07.205 2.8-2.734 7.37-2.755 18-.053 26.67 1.471 4.72 2.89 9.32 3.154 10.22s1.052 1.28 1.751.85c1.534-.95 1.364-7.03-.375-13.41-.893-3.28-.86-6.08.11-9.36.761-2.57 1.703-6.22 2.093-8.1.39-1.89 1.326-3.43 2.079-3.43.771 0 1.074 1.12.693 2.58-.837 3.2 1.692 17.38 3.101 17.38 1.056 0 1.286-1.96 1.245-10.61l-.023-4.99 1.009 5.62c.556 3.08.744 7.05.419 8.8-.368 1.99.156 3.81 1.389 4.83 1.704 1.41 1.979 1.26 1.979-1.08 0-1.5.545-2.38 1.211-1.97 1.602.99 2.832-4.18 2.252-9.48l-.463-4.22-1.66 5.97c-1.98 7.13-3 7.02-1.848-.18.795-4.97 5.507-12.23 6.981-10.76.395.4.204 3.02-.425 5.82-1.199 5.33-.454 7.82 1.429 4.78.673-1.1.911 2.08.61 8.14-.41 8.26-.308 8.99.608 4.32.605-3.09 1.142-8.25 1.193-11.46.09-5.7 2.091-13.16 3.225-12.03.312.32.082 2.27-.512 4.34-.621 2.16-.605 4.61.037 5.76.688 1.23.632 2.29-.147 2.77-1.58.98-1.672 5.63-.11 5.63.633 0 1.69-2.95 2.347-6.55.959-5.26 1.223-5.74 1.342-2.42.088 2.44.664 3.81 1.417 3.34.697-.43.981-1.25.632-1.81-.35-.57.233-3.11 1.295-5.65 2.659-6.37 1.812-10.07-.997-4.36-1.178 2.39-2.154 3.63-2.17 2.75-.095-5.35 12.338-22.73 16.264-22.73 2.18 0 1.2 1.51-3.92 6.07-4.693 4.18-5.142 5.13-5.696 12.13-.792 10.03-1.037 11.51-2.066 12.54-.477.47-.85 1.75-.828 2.84.034 1.7.269 1.67 1.697-.21 2.628-3.46 3.501-2.54 1.415 1.5-1.047 2.02-1.904 4.59-1.904 5.71 0 3.42 7.952-5.5 9.392-10.53 1.07-3.76 1.87-4.51 4.99-4.7 2.04-.12 2.69.07 1.45.42-2.48.7-5.15 6.06-4.72 9.47.17 1.32-.93 2.65-2.753 3.34-3.018 1.15-4.567 4.44-4.599 9.76-.009 1.55-.526 2.81-1.148 2.81s-.85 1.08-.506 2.39c.411 1.57-.269 2.87-1.988 3.79-1.437.77-2.613 2.14-2.613 3.05s-1.468 3.13-3.261 4.92c-2.524 2.52-3.076 4-2.441 6.53.596 2.38.379 3.13-.794 2.74-.887-.29-2.124-2.55-2.749-5.03-.887-3.52-.677-5.19.965-7.7 2.46-3.75.916-4.29-2.257-.78-1.637 1.81-2.08 4.01-1.753 8.73.241 3.47.324 6.31.184 6.31-.139 0-1.823-.67-3.743-1.5-5.944-2.55-10.475-6.15-11.655-9.25-.621-1.63-1.615-2.97-2.208-2.97-1.542 0-3.974 5.8-3.974 9.48 0 1.71-.764 4.64-1.698 6.49-1.826 3.62-3.738 25.08-2.517 28.26.406 1.06 1.281 1.93 1.943 1.93.661 0 2.04.84 3.063 1.86 1.649 1.65 1.648 2.17-.008 4.53-1.862 2.66-1.88 2.65-4.528-1.55zm-6.86-49.75c-.424-.69-1.018-1.25-1.321-1.25-.302 0-.55.56-.55 1.25 0 .68.595 1.24 1.321 1.24.727 0 .974-.56.55-1.24zm22.404-3.83c-1.069-1.73-1.818-1.41-1.818.78 0 1.07.571 1.59 1.268 1.16s.945-1.3.55-1.94zm-4.512-5.18c-1.447-6.43-1.762-6.8-3.329-3.87-.864 1.61-.714 3.55.499 6.43 2.406 5.72 4.304 4.01 2.83-2.56zm-16.442-.04c-.346-.86-.629-.15-.629 1.56 0 1.72.283 2.42.629 1.56.347-.86.347-2.26 0-3.12zm31.593 3.12c-.01-.51-.563-1.78-1.228-2.81-.978-1.51-1.213-1.33-1.229.94-.01 1.54.542 2.81 1.229 2.81.686 0 1.239-.42 1.228-.94zm-5.338-9.36c-.298-1.54-.541-.28-.541 2.81s.243 4.35.541 2.81c.297-1.55.297-4.07 0-5.62zm-3.114.29c-.3-2.05-1.043-3.72-1.651-3.72-1.284 0-1.408 3.11-.292 7.28 1.069 3.99 2.631 1.13 1.943-3.56zm14.709 3.77c0-.69-.594-1.25-1.321-1.25s-.974.56-.55 1.25c.424.68 1.019 1.25 1.321 1.25.303 0 .55-.57.55-1.25zm-19.215-10.74c-1.091-2.84-3.242-1.98-3.242 1.3 0 1.67.681 4.62 1.513 6.55l1.512 3.51.442-4.81c.243-2.64.142-5.59-.225-6.55zm22.442-1.28c-.984-2.57-3.283-.89-2.429 1.77 1.762 5.48 2.134 5.9 2.64 2.98.276-1.59.181-3.73-.211-4.75zm-3.227 2.73c0-.98-.561-2.14-1.247-2.56-.686-.43-1.248.38-1.248 1.79 0 1.42.562 2.57 1.248 2.57s1.247-.81 1.247-1.8zm-25.549 71.98c.505-1.2 1.191-3.44 1.524-4.97.82-3.78 2.816-2.29 2.816 2.1 0 2.08-.816 3.85-1.974 4.3-3.01 1.15-3.362.94-2.366-1.43zm48.187-2.83c-2.47-3.34-2.55-3.84-.73-4.54 1.15-.45 2.53-.03 3.15.95.88 1.4 1.11 1.31 1.12-.44.01-1.2.68-2.18 1.48-2.18.81 0 2.49-.93 3.75-2.07 2-1.81 2.28-1.83 2.28-.13 0 1.06-.84 2.25-1.87 2.65-1.03.39-1.87 2.02-1.87 3.62 0 2.72-2.03 5.91-3.76 5.91-.42 0-2.02-1.7-3.55-3.77zM1.549 186c-.299-.51-.859-4.86-1.243-9.67-.385-4.8-.413-7.75-.062-6.55.767 2.63.377 2.61 5.884.31 4.297-1.79 4.566-1.75 6.322.94 2.158 3.31 4.889 14.65 3.792 15.75-.418.42-1.314-.23-1.991-1.44s-1.719-1.89-2.315-1.53c-.597.37-1.438.1-1.869-.59-1.314-2.13-3.131-1.42-3.131 1.22 0 2.45-4.169 3.66-5.387 1.56zm6.634-10.36c0-1.42-.561-2.22-1.247-1.8s-1.248 1.58-1.248 2.57.562 1.8 1.248 1.8 1.247-1.16 1.247-2.57zm183.92 6.2c-1.95-2.16-2.22-4.99-2.2-22.7l.03-20.23 4.76-9.98c2.62-5.49 5.01-9.29 5.3-8.44s-.94 4.73-2.72 8.63c-4.59 10.02-6.96 22.61-6.15 32.62.87 10.78 1.35 12.33 3.25 10.44 2.51-2.51 4.39-1.67 3.75 1.67-.32 1.72.11 3.98.98 5.02.86 1.04 1.35 2.02 1.08 2.17-5.63 3.25-5.84 3.27-8.08.8zm-11.08-1.08c-.45-.72-1.96-1.31-3.35-1.31-1.4 0-4.04-1.05-5.86-2.33s-4.58-2.72-6.13-3.21c-2.78-.86-7.67-8.18-5.47-8.18.63 0 1.54 1.26 2.04 2.81.84 2.61.95 2.64 1.53.38.58-2.25.76-2.2 2.32.62 1.67 3.01 1.69 2.99 1.73-1.59.04-3.6.47-4.48 1.92-3.92 1.32.51 1.87-.1 1.87-2.04 0-2.33-.49-2.64-3.12-1.99-2.54.64-3.12.33-3.12-1.69 0-1.69-.59-2.25-1.86-1.77-1.03.4-1.56 1.22-1.18 1.83.38.62.09 1.12-.66 1.12-.74 0-1.69-1.68-2.1-3.74s-1.3-3.74-1.98-3.74c-.69 0-.97 1.4-.65 3.12.33 1.71.18 3.11-.34 3.11s-1.29-1.4-1.72-3.11c-.98-3.89-3.2-4.1-3.33-.32-.05 1.55-.39 2.08-.75 1.2-.35-.89-.3-2.99.13-4.68.68-2.73 1.05-2.89 3.4-1.5 2.15 1.26 2.75 1.24 3.25-.15.49-1.38.8-1.39 1.61-.08.8 1.3 1.37 1.31 2.88.06 1.58-1.31 1.96-1 2.41 1.96.51 3.29.6 3.33 1.47.78.76-2.26 1.43-2.54 3.82-1.63 4.84 1.84 6.25-1.29 3.65-8.11-1.19-3.12-1.89-5.96-1.54-6.31.34-.34 1.89 3.12 3.43 7.7 1.99 5.87 2.66 10.23 2.28 14.77-.48 5.82.79 9.41 3.32 9.41 1.79 0 .46-14.34-1.77-19.26-4.03-8.83-4.44-14.54-1.42-19.5 1.44-2.36 2.62-5.83 2.62-7.72s.51-3.43 1.13-3.43c1.62 0 .07 10.09-2.05 13.36-1.19 1.83-1.5 4.09-.92 6.72.62 2.82 1.17 3.47 1.91 2.27.86-1.4 1.15-1.37 1.62.14.31 1.01.87 2.79 1.24 3.94.37 1.16.14 2.28-.53 2.51-.76.25-.73 2.88.1 7.23.71 3.75 1.2 9.64 1.09 13.09-.12 3.44.17 7.45.63 8.89.93 2.93-2.12 6.61-3.55 4.29zm-6.15-17.25c.53-2.62.32-4.02-.6-4.02-.77 0-1.41.98-1.42 2.19-.01 1.2-.37 3.58-.79 5.3-.57 2.26-.4 2.76.61 1.83.77-.71 1.76-3.09 2.2-5.3zm-118.67 10.7c-3.846-4.57-5.641-20.2-2.662-23.18 1.788-1.79 2.04-1.77 2.801.21.459 1.2.199 2.82-.578 3.59-2.209 2.21-1.719 4.69 2.584 13.08 3.859 7.53 4.167 7.8 8.808 7.8 2.644 0 4.488.52 4.096 1.15-.391.64-3.299 1.06-6.462.94-4.565-.17-6.336-.91-8.587-3.59zm93.023.74c.08-3.17 3.45-10.48 3.58-7.76.06 1.14.81 2.32 1.67 2.62 1.03.36.39 1.72-1.88 4.02-2.94 2.98-3.42 3.14-3.37 1.12zm-2.53-4.54c.01-.86.56-2.4 1.23-3.43.94-1.46 1.21-1.12 1.22 1.56.01 1.88-.54 3.43-1.22 3.43-.69 0-1.24-.7-1.23-1.56zm-3.06-1.82c-.68-1.78-.53-1.92.7-.7.85.85 1.23 1.86.85 2.24s-1.08-.31-1.55-1.54zm467.5-8.79c-.45-1.2-1.64-2.8-2.66-3.56-1.19-.9-1.51-2.21-.89-3.74.89-2.25 1.03-2.23 2.85.44 1.05 1.55 2.83 2.81 3.97 2.81 2.83 0 7.82 3.65 6.93 5.07-1.32 2.15-9.31 1.35-10.2-1.02zm-475.69-3.35c0-2.45.52-4.44 1.16-4.44 1.76 0 5.09-12.76 4.24-16.26-.62-2.53-.45-2.8.92-1.52 1.38 1.29 1.39 2.91.07 9.35-.87 4.29-2.11 8.34-2.74 8.99-.64.65-1.16 2.44-1.16 3.98s-.56 3.14-1.24 3.57c-.75.45-1.25-1.03-1.25-3.67zm10.57 1.48c-.32-.86-.07-3.24.56-5.3 1.1-3.63 1.13-3.59 1.24 1.56.1 5.21-.66 6.81-1.8 3.74zm-59.19-.88c-1.01-.64-1.51-1.49-1.11-1.89.39-.39 1.43.14 2.29 1.18 1.8 2.17 1.46 2.38-1.18.71zm457.23-1.28c-.42-.68.63-3.63 2.32-6.55 1.7-2.93 3.49-7.57 3.98-10.31 1.04-5.88 5.06-14.35 6.81-14.35 1.81 0 1.48 2.63-.62 4.95-1.01 1.12-2.61 5.65-3.55 10.08-2.89 13.52-6.52 20.09-8.94 16.18zm-320.82-5.61c-.93-2.44 1.4-8.13 3.33-8.13 1.89 0 .97 9.03-.98 9.67-.86.28-1.91-.41-2.35-1.54zm115.82-.9c-1.81-1.81-1.99-9.28-.25-10.35.75-.47 1.33 1.38 1.46 4.6l.21 5.38.49-4.68c.7-6.67 2.32-5.82 1.78.93-.47 5.85-1.17 6.64-3.69 4.12zm4.87-.61c.06-1.24.57-3.66 1.12-5.38.9-2.8 1.01-2.65 1.12 1.49.07 2.53-.43 4.95-1.12 5.37-.69.43-1.19-.24-1.12-1.48zm-278.65-6.24c-1.732-.45-1.915-1.06-.892-2.97 1.511-2.82 4.942-3.22 4.942-.57 0 1.22-.724 1.56-2.184 1.01-1.912-.72-1.97-.56-.471 1.29.942 1.16 1.504 2.04 1.248 1.96s-1.445-.4-2.643-.72zm353.92-3.39c-.98-3.89 1.38-8.22 4.47-8.22 3.02 0 4.49 4.97 2.54 8.61-1.93 3.61-6.06 3.38-7.01-.39zm4.41-6.35c0-.69-.54-.41-1.21.62-.66 1.03-1.21 2.43-1.21 3.12s.55.41 1.21-.62c.67-1.03 1.21-2.44 1.21-3.12zm192.31 4.48l-2.97-2.25 3.38-.65c2.27-.44 3.62-.05 4.08 1.15 1.2 3.12-1.35 4.12-4.49 1.75zm6.1.58c0-.99.56-2.14 1.25-2.57.68-.42 1.25.39 1.25 1.8s-.57 2.57-1.25 2.57c-.69 0-1.25-.81-1.25-1.8zm-547.7-3.74c0-.99.509-2.11 1.131-2.5.623-.38.838.43.479 1.8-.762 2.91-1.61 3.28-1.61.7zm92.594-5.92c-2.21-2.87-4.01-5.67-4.01-6.22s1.1-3.92 2.46-7.48c1.39-3.67 2.01-7.06 1.42-7.82-.57-.73-1.39-3.18-1.82-5.45-.45-2.38-2.37-5.46-4.54-7.28-2.07-1.75-3.76-4.24-3.76-5.55 0-4.12-2.34-2.6-3.22 2.09-.46 2.46-2.88 6.83-5.36 9.71-2.49 2.88-5.52 6.62-6.73 8.32l-2.22 3.07.79-4.2c.43-2.31.4-7.75-.07-12.09-.75-7.04-1.37-8.41-5.74-12.65-5.19-5.04-6.19-7.04-2.88-5.77 1.62.63 1.84.23 1.12-2.04-.56-1.76-.08-4.64 1.27-7.64 1.81-4.02 1.92-5.41.65-8.48-1.14-2.74-1.17-4.33-.13-6.28 2.26-4.21 3.84-3.01 3.62 2.75-.21 5.58 2.23 12.2 4.79 13.03 1.55.51 6.59-8.64 6.66-12.07.03-1.62.26-1.58 1.32.24.7 1.21.97 2.69.6 3.29-1.87 3.01 4.11 23.84 6.84 23.84.65 0 1.18.73 1.18 1.62 0 .9 1.68 3.9 3.72 6.68 5.18 7.04 7.03 16.38 4.95 25.02-1.43 5.96-1.37 6.94.48 8.79 1.95 1.95 2.08 1.91 2.08-.67 0-1.52.56-2.77 1.25-2.77s1.25 1.41 1.25 3.12c0 1.72-.51 3.12-1.13 3.12s-.84 1.12-.48 2.5c.95 3.63.13 3.11-4.36-2.73zm-20.72-32.08c-.08-2-.56-3.37-1.07-3.05-1.59.98-1.04-1.37 1.01-4.28 2.28-3.27 1.09-3.66-2.16-.71-2.63 2.38-2.99 7.22-.72 9.79 2.35 2.67 3.08 2.24 2.94-1.75zm5.19-3.64c.75-2.24-1.83-1.77-2.7.5-.46 1.21-.19 1.78.73 1.48.81-.27 1.7-1.16 1.97-1.98zm-3.79-9.72c-.88-.87-4.65.9-4.65 2.18 0 .64 1.17.53 2.6-.23 1.43-.77 2.35-1.64 2.05-1.95zm-2.68-5.17c-.89-.89-5.72 1.01-5.72 2.24 0 .63 1.41.5 3.13-.29 1.72-.78 2.88-1.66 2.59-1.95zm-5.72 50.29c0-1.67.56-3.39 1.25-3.82.73-.45 1.25.82 1.25 3.05 0 2.1-.56 3.82-1.25 3.82s-1.25-1.37-1.25-3.05zm240.26 1.09c-1.08-1.08-1.96-1.61-1.96-1.18s-.59.42-1.31-.02c-.79-.49-.05-2.06 1.89-4 3.42-3.43 5.92-3.04 3.03.46-1.6 1.94-1.52 1.97 1.04.38 2.16-1.35 3.1-1.4 4.27-.23 1.17 1.16.99 2.06-.79 4.02-2.75 3.04-3.62 3.12-6.17.57zm25.49-.47c0-.72.56-1.32 1.24-1.32.69 0 1.25.25 1.25.55 0 .31-.56.9-1.25 1.33-.68.42-1.24.17-1.24-.56zm138.48 0c0-.72.56-1.32 1.25-1.32.68 0 1.25.25 1.25.55 0 .31-.57.9-1.25 1.33-.69.42-1.25.17-1.25-.56zm-142.23-1.01c0-.69.84-1.95 1.87-2.8 1.05-.87 1.88-1 1.88-.31s-.85 1.95-1.88 2.8c-1.04.87-1.87 1.01-1.87.31zm-29.91-1.24c.02-.52 1.69-2.9 3.71-5.3 4.25-5.05 5.08-2.96 1.02 2.54-2.6 3.51-4.8 4.79-4.73 2.76zm-4.4-1.2c-1.37-.33-3.68-1.95-5.13-3.6s-3.33-3-4.17-3 .01-1.82 1.9-4.05c1.88-2.23 4.18-5.89 5.12-8.14 1.41-3.36 2.01-3.8 3.41-2.49 1.18 1.1 1.36 2.45.59 4.47-1.42 3.74-1.37 5.09.11 2.76 1.79-2.84 2.76-.77 1.36 2.91-1.44 3.79-.61 4.17 2.64 1.23 1.3-1.18 2.28-1.46 2.28-.66 0 1.26-4.98 11.66-5.43 11.31-.1-.08-1.3-.41-2.68-.74zm234.46-1.01c2.57-1.94 4-1.63 2.64.57-.45.73-1.77 1.31-2.93 1.29-1.85-.04-1.82-.27.29-1.86zm-522.66-.6c-.42-.69-.17-1.25.55-1.25.73 0 1.32.56 1.32 1.25s-.24 1.25-.55 1.25c-.3 0-.89-.56-1.32-1.25zm320.02.25c0-1.31 2.71-3.99 4.03-3.99.58 0 .44 1.12-.29 2.49-1.32 2.47-3.74 3.44-3.74 1.5zm221.46-4.68c-1.37-3.12-3.8-6.52-5.4-7.57-1.63-1.06-2.62-2.68-2.25-3.64.36-.95-.66-2.78-2.29-4.06-2.04-1.61-3.23-4.21-3.87-8.46-.85-5.68-3.77-11.63-5.75-11.72-1.28-.06-8.52-7.57-8.52-8.83 0-.62.84-.79 1.87-.4 2.3.89 2.59-3.32.37-5.53-.82-.83-1.13-1.5-.69-1.5.45 0-.25-3.09-1.55-6.86-1.3-3.78-2.09-6.87-1.76-6.87s.01-1.1-.71-2.45c-1.6-2.99-.28-12.82 1.57-11.68.84.52 1-.62.47-3.29-.45-2.26-.82-5.43-.82-7.06s-.61-2.96-1.35-2.96c-.84 0-1.04 1.38-.53 3.71.92 4.17-.14 8.76-2.02 8.76-.68 0-.8-.7-.27-1.56.54-.85.99-4.36 1.01-7.79l.04-6.24 5.05.36c3.76.28 6.23-.43 9.72-2.8 5.09-3.45 7.65-3.84 12.67-1.93 4.61 1.75 2.65 3.87-2.87 3.12-5.69-.77-12.7 2.49-14.8 6.87-.83 1.71-2.21 8.06-3.09 14.12-1.42 9.81-1.36 11.65.55 17.02 1.18 3.32 2.55 8.75 3.04 12.08l.9 6.05.87-6.24c1.45-10.46 3.82-19.32 4.96-18.61 1.71 1.05 1.19 9.55-.78 13-.98 1.72-1.8 5.18-1.83 7.69-.02 2.52-.68 4.79-1.46 5.05-.91.3-.65 1.23.73 2.61 1.18 1.18 2.66 1.82 3.3 1.42.63-.39 1.67.59 2.31 2.18l1.16 2.88.17-3.12c.15-2.85.25-2.9 1.19-.62 1.14 2.78 2.02 1.45 2.88-4.37.43-2.88.54-2.92 1.43-.62.53 1.37 1.2 3.28 1.5 4.23.29.96.77 1.5 1.07 1.21.29-.3-.19-3.32-1.06-6.73-1.48-5.76-1.37-6.67 1.47-12.89 2.32-5.09 3.01-8.6 2.88-14.66-.1-4.65.35-7.96 1.09-7.96.73 0 1.26 3.67 1.26 8.73 0 8.03.21 8.73 2.61 8.73 1.57 0 2.88-1 3.27-2.49.36-1.38 1.07-2.5 1.57-2.5.96 0 2.53 12.15 2.53 19.52 0 5.61 2 5.33 3.09-.43 1.58-8.47 5.51-11.35 5.75-4.22.08 2.11 1.14.2 3.08-5.51 3.22-9.51 3.24-9.37 1.03 9.08-.63 5.3-.36 7.07 1.41 9.02 1.21 1.33 2.68 2.13 3.28 1.76 1.27-.79 1.35-.19.32 2.49-1.03 2.69-3.73 2.48-6.73-.52-1.98-1.97-2.49-2.1-2.49-.59 0 1.05-1.55 2.54-3.44 3.33-4.69 1.95-11.54 2.68-11.54 1.23 0-.65-1.12-1.48-2.49-1.83-1.37-.36-2.5-.06-2.5.67s-1.12.31-2.49-.94c-2.43-2.19-2.5-2.18-2.5.57 0 1.76-.58 2.58-1.56 2.18-6.6-2.7-6.32-2.79-5.44 1.73.46 2.34.99 5.17 1.18 6.29s2.84 5 5.88 8.64c4.49 5.37 9.92 14.62 9.92 16.91 0 .27-.7.48-1.56.48-.85-.01-2.67-2.56-4.04-5.67zm8.9-35.49c1.54 0 1.73-1.27 1.05-7.18-1.73-15.09-1.56-14.75-6.36-13.15-5.05 1.68-7.72 9.58-5.61 16.61 1.38 4.62 1.89 5.11 4.59 4.43 2.33-.58 3.07-.25 3.18 1.45.14 2.08.18 2.08.71.02.32-1.2 1.42-2.18 2.44-2.18zm10.41-4.76c-.03-7.4-2.02-8.87-3.02-2.23-.47 3.15-.5 6.3-.07 7 1.47 2.38 3.11-.15 3.09-4.77zm-45.69-50.76c.39-1.03.17-1.87-.49-1.87-.67 0-1.21.84-1.21 1.87s.22 1.87.49 1.87.81-.84 1.21-1.87zm5.78 92.32c.86-1.03 2.12-1.87 2.8-1.87.7 0 .57.83-.3 1.87-.86 1.03-2.12 1.87-2.8 1.87-.7 0-.56-.82.3-1.87zm-202.48-2.38c1.23-1.65 2.43-2.47 2.67-1.83.76 2.08-.92 4.84-2.94 4.84-1.72 0-1.69-.39.27-3.01zm-256.95-1.36c.33-1.72.82-3.12 1.08-3.12s.48 1.4.48 3.12c0 1.71-.49 3.12-1.08 3.12s-.8-1.41-.48-3.12zm92.63 1.87c0-.69.25-1.25.55-1.25.31 0 .9.56 1.33 1.25.42.69.17 1.25-.55 1.25-.73 0-1.33-.56-1.33-1.25zm157.66.27c.44-.72.1-1.54-.76-1.83-1.23-.41-1.2-.98.14-2.6.95-1.14 2.09-2.08 2.54-2.08 1.55 0 .53 6.73-1.1 7.27-.89.3-1.26-.04-.82-.76zm152.34-2.45c.93-3.69 2.87-6.55 4.44-6.55.54 0-.1 2.24-1.43 4.99-2.78 5.76-4.25 6.53-3.01 1.56zm-65.05 0c0-1.2.88-2.85 1.97-3.66 1.56-1.16 1.66-1.81.47-3.02-1.2-1.21-.6-2.55 2.8-6.32 2.38-2.63 4.33-6.01 4.33-7.5 0-2.55 1.58-8.43 3.79-14.12.53-1.38.67.87.3 4.99-.37 4.11-1.09 7.95-1.61 8.52-1.1 1.22-.13 5.82 1.23 5.82.5 0 1.5-1.82 2.22-4.05.96-3 1.33-3.37 1.43-1.4.23 4.8-5.68 16.06-10.28 19.56-5.14 3.92-6.65 4.19-6.65 1.18zm-395.6-.63c.29-.85 1.46-1.74 2.6-1.96 1.45-.28 1.85.19 1.32 1.56-.88 2.31-4.68 2.7-3.92.4zm300.68-2.67c1.2-.91 2.2-2.44 2.21-3.39.03-2.04 4.9-8.59 4.94-6.65.06 3.22-5.16 11.77-7.18 11.74-2.03-.04-2.02-.14.03-1.7zm12.18.8c.04-1.71 2.33-4.62 3.06-3.88.99.98-.58 4.82-1.96 4.82-.61 0-1.11-.42-1.1-.94zm-164.7-1.56c0-.68 1.09-1.25 2.42-1.25s2.77.57 3.19 1.25c.44.71-.61 1.25-2.42 1.25-1.75 0-3.19-.56-3.19-1.25zm212.72 0c.42-.68 1.33-1.25 2.02-1.25.68 0 .9.57.47 1.25-.42.69-1.33 1.25-2.02 1.25-.68 0-.9-.56-.47-1.25zm-355.56-1.23c-.44-.71.06-.92 1.17-.49 2.16.83 2.56 1.72.76 1.72-.64 0-1.52-.55-1.93-1.23zm302.53-.87c0-.64.83-2.25 1.84-3.59 1.53-2.03 1.83-2.09 1.87-.39.02 1.12-.81 2.73-1.83 3.59-1.03.85-1.88 1.03-1.88.39zm151.99.22c-.81-.82 2.98-9.25 4.19-9.31 1.05-.05-1.04 7.51-2.47 8.95-.57.57-1.34.73-1.72.36zm-108.32-1.12c0-.96 7.04-4.48 8.95-4.48.87 0 .48.76-.87 1.7-2.85 1.97-8.08 3.77-8.08 2.78zm115-2.82c.22-1.14 1.06-2.3 1.87-2.57.93-.31 1.21.45.79 2.08-.8 3.05-3.24 3.5-2.66.49zm-314.93.01c.86-.35 2.26-.35 3.12 0 .86.34.15.62-1.56.62-1.72 0-2.42-.28-1.56-.62zm218.64-.43c-1.51-.97-1.33-1.21.94-1.22 1.54-.01 2.81.54 2.81 1.22 0 1.57-1.33 1.57-3.75 0zm120.19-3.06c.67-6.09 2.08-7.17 2.08-1.58 0 2.47-.58 4.86-1.29 5.29-.82.51-1.11-.82-.79-3.71zM91.16 104.6c-1.65-.71-1.86-1.1-.62-1.14 1.02-.04 2.71.47 3.74 1.14 2.28 1.47.31 1.47-3.12 0zm130.38-1.87c1.61-1.72 3.81-3.12 4.89-3.12 1.31.01.72 1.03-1.78 3.08-4.88 4-6.86 4.02-3.11.04zm5.61 1.87c.42-.69 1.33-1.25 2.02-1.25.68 0 .9.56.47 1.25-.42.68-1.33 1.24-2.01 1.24-.69 0-.9-.56-.48-1.24zm154.36-.47c1.18-.9 2.69-2.98 3.35-4.64.92-2.3 1.22-2.47 1.28-.74.12 3.48-2.26 7.1-4.64 7.05-2.02-.03-2.02-.13.01-1.67zm-142.27-3.41c-4.39-2.25-3.95-4.01.57-2.3 2.51.95 4.97 3.49 4 4.14-.24.16-2.3-.67-4.57-1.84zm137.77.42c1.46-1.19 3.27-3.28 4.02-4.65 1.36-2.47 1.37-2.47 1.41.12.04 2.91-3.57 6.75-6.3 6.71-1.21-.02-.93-.71.87-2.18zm72.84.75c0-.57 1.68-1.04 3.74-1.04s3.75.22 3.75.49c0 .26-1.69.73-3.75 1.03s-3.74.08-3.74-.48zm-354.94-1.02c-.44-.71.06-.92 1.17-.49 2.17.83 2.56 1.72.77 1.72-.65 0-1.52-.55-1.94-1.23zm277.59-.67c0-1.06.84-2.24 1.87-2.64 2.21-.85 2.49-3.78.43-4.46-.98-.33-.73-1.57.79-3.89 2.63-4.01 4.03-3.58 1.82.56-.96 1.79-1.06 3.01-.28 3.27 1.96.65.41 5.94-2.24 7.59-1.97 1.23-2.39 1.15-2.39-.43zm-154.71-.44c0-.6.94-1.87 2.08-2.81 1.88-1.55 1.93-1.45.58 1.1-1.55 2.9-2.66 3.61-2.66 1.71zm241.48-.05c-.39-.63 0-1.42.86-1.77 1.25-.5 1.25-.65.01-.73-3.03-.19-1.62-3.84 1.49-3.84 4.24 0 5.18 2.24 2.13 5.08-2.91 2.72-3.49 2.88-4.49 1.26zm92.9-.97c.01-1.24.57-3.1 1.23-4.12.95-1.47 1.22-1.14 1.23 1.48.01 1.85-.54 3.71-1.23 4.13-.68.42-1.24-.24-1.23-1.49zm-454.92-.93c-.38-.99-.09-2.81.63-4.05 1.12-1.92 1.32-1.65 1.35 1.79.04 4.28-.82 5.27-1.98 2.26zm209.74-.18c1.8-4.16 2.17-11.37.7-14.1-.87-1.64-.93-2.64-.16-2.64.68 0 1.9 2.22 2.71 4.93 1.52 5.06.08 11.49-2.99 13.39-.85.53-.94-.02-.26-1.58zm234.85-4.57c.9-7.03 1.58-7.56 1.58-1.22 0 2.82-.51 5.44-1.13 5.82-.64.4-.84-1.58-.45-4.6zm5.32 4.05c0-.69.57-1.25 1.25-1.25a1.25 1.25 0 010 2.5c-.68 0-1.25-.56-1.25-1.25zm-331.86-.8c0-1.6 6.02-7.32 6.84-6.49.34.33-1.06 2.22-3.11 4.18-2.05 1.97-3.73 3.01-3.73 2.31zm22.7-.51c-2.26-.49-4.51-1.32-4.99-1.84-.97-1.06 8.41.16 9.47 1.23 1.29 1.28-.37 1.5-4.48.61zm245.43-.99c.86-1.6.78-2.76-.24-3.79-1.9-1.89-2.3-9.03-.63-11.06.95-1.16.6-1.56-1.37-1.56-3.37 0-3.34-.91.13-3.72 2.38-1.93 2.58-2.67 1.34-5.19-.79-1.62-1.74-5.19-2.11-7.94-.37-2.74-.37-4.29.01-3.43s1.48 1.56 2.46 1.56c1.25 0 1.76 1.59 1.76 5.51 0 3.19.64 5.72 1.51 6.01 1.11.38.95 1.93-.63 6.08-2.71 7.09-2.67 7.73.37 6.11 1.37-.74 2.5-.86 2.5-.27 0 2.96-4.01 13.99-5.09 13.99-.82 0-.82-.78-.01-2.3zM243.99 91.5c-1.61-1.72-2.37-3.12-1.68-3.12s2.57 1.4 4.18 3.12c1.61 1.71 2.37 3.12 1.68 3.12s-2.57-1.41-4.18-3.12zm-19.96 1.31c0-1.48 8.81-4.53 10.34-3.59.94.58.1 1.24-2.24 1.76-2.05.46-4.72 1.24-5.92 1.74s-2.18.55-2.18.09zm59.86-1.63c.68-1.2 1.75-4.14 2.39-6.55.72-2.71 1.2-3.37 1.27-1.74.15 3.52-2.35 10.48-3.77 10.48-.64 0-.6-.95.11-2.19zm-70.28-.01c-1.09-1.76 2.42-9.03 4.37-9.03.93 0 .9.56-.12 1.79-.82.99-1.9 3.35-2.41 5.25-.59 2.18-1.27 2.92-1.84 1.99zm231.66-3.45c-.12-4.5 2.93-7.66 6.21-6.43.82.3-.2 1.28-2.25 2.16-3.73 1.6-3.7 1.61 4.36 2.87 4.46.69 7.1 1.48 5.86 1.76-1.79.4-1.95.87-.78 2.27 1.21 1.47.77 1.77-2.58 1.77-3.49 0-3.83-.26-2.47-1.9 2.63-3.18.18-3.71-3.74-.82-2.02 1.5-3.86 2.72-4.08 2.72-.23 0-.47-1.98-.53-4.4zm130.59 1.98c0-1.33.56-2.77 1.25-3.19.7-.44 1.24.61 1.24 2.42 0 1.75-.56 3.19-1.24 3.19-.69 0-1.25-1.09-1.25-2.42zm-82.54-5.06c.24-3.44 1-6.24 1.7-6.24.69 0 .92.88.5 1.97s-.76 3.89-.76 6.24c0 2.34-.42 4.26-.93 4.26-.52 0-.74-2.8-.51-6.23zm183.28 5.35c-1.88-.29-3.42-.91-3.41-1.38.05-1.95 2.2-4.08 3.77-3.73 1 .22 2.04-1.14 2.55-3.36.47-2.06.92-3.29 1-2.74.08.56.78.62 1.56.14.95-.59.72-1.25-.71-2.05-1.56-.88-2.04-2.56-1.8-6.38.29-4.8-.53-6.31-2.99-5.5-.53.18-1.29 3.97-1.7 8.43-.4 4.45-1.23 8.28-1.84 8.51s-1.1 1.51-1.1 2.85c0 3.15-3.21 4.34-5.87 2.18-1.8-1.47-1.99-1.43-1.35.28.63 1.66-.37 1.96-6.31 1.87-5.37-.08-7.06-.55-7.06-1.96 0-1.02 1.05-2.06 2.33-2.31 1.61-.31 2.03.04 1.37 1.12-.63 1-.46 1.24.47.67 2.1-1.3 1.77-6.22-.71-10.53-1.87-3.26-1.96-4.65-.67-10.76 1.76-8.42.32-14.47-2.83-11.86-3.18 2.64-6.82-1.81-6.82-8.34 0-6.93 2.23-7.1 2.73-.21.49 6.6 3.51 8.12 3.51 1.76 0-3.51.49-4.47 2.29-4.47 1.86 0 2.51 1.52 3.51 8.22.68 4.53.81 11.36.29 15.19-.71 5.25-.51 7.58.85 9.51 1.74 2.49 1.79 2.46 1.79-.92 0-1.92 1.47-5.99 3.26-9.05 4.8-8.19 6.75-16.46 4.9-20.77-.69-1.59-.37-2.18 1.17-2.18 1.81 0 2.04 1.11 1.62 7.79-.26 4.29-.93 8.78-1.48 9.98-.85 1.85-.35 2.19 3.3 2.19 4.26 0 8.44-2.99 8.44-6.03 0-.8.5-1.46 1.11-1.46s.91 4.91.67 10.92c-.39 9.85-.3 10.37.89 5.3 1.99-8.52 2.68-9.84 3.24-6.24 1.07 7.02 9.17 19.96 12.49 19.96.9 0 1.63-1.72 1.72-4.05.31-7.85.78-9.95 2.45-10.99.93-.57 1.42-1.21 1.1-1.42-.33-.21-1.71-.99-3.09-1.75-1.41-.77-3.12-3.75-3.95-6.86-.8-3.02-1.57-5.63-1.72-5.8-.14-.18-.37-.74-.52-1.25-.14-.52-.58-1.78-.96-2.81-.39-1.03-1.4-4.55-2.25-7.83-1.67-6.46-7.64-12.8-10.89-11.55-1.02.39-2.49.22-3.26-.37-3.08-2.39-15.74-3.89-22.32-2.65-10.33 1.95-13.38 7.13-13.41 22.79-.01 7.06-.39 9.64-1.22 8.34-.67-1.02-1.22-4.71-1.23-8.18-.01-3.73-1.05-8.44-2.52-11.48-3.1-6.41-3.19-9.39-.18-5.47l2.26 2.94 5.75-5.91 5.74-5.92 12.24-.07c13.24-.08 23.91 2.19 25.1 5.33.4 1.07 1.99 2.93 3.53 4.15 1.83 1.45 3.28 4.66 4.24 9.36 1.57 7.71 4.98 18.59 6.68 21.29.71 1.14 2.38 1.43 5.18.9 2.27-.43 4.44-.27 4.82.35.78 1.26-2.5 4.41-5.8 5.59-1.42.5-2.25 2.2-2.36 4.86-.1 2.26-.24 5.5-.31 7.22-.11 2.48-.88 3.2-3.81 3.53-2.96.34-4.57-.56-8.42-4.73-2.61-2.83-4.75-6.06-4.75-7.17 0-4.96-1.7.33-2.37 7.4-.8 8.26-1.17 8.62-7.93 7.57zm-8.52-7.29c1.52.94 2.81-2.92 1.92-5.73-.47-1.48-.02-2.6 1.22-3.08 2.14-.82 2.78-7.97.71-7.97-.69 0-1.25 1.72-1.25 3.82 0 2.43-.49 3.51-1.36 2.98-.74-.47-1.07-1.94-.72-3.27.76-2.9-2.19-4.44-4.63-2.41-1.82 1.51-3.6 12.8-2.47 15.74.53 1.37 1.27 1.5 3.09.53 1.32-.71 2.89-.98 3.49-.61zm-451.54 5.96c0-1.85 5.97-6.82 7.55-6.29.82.27-.55 2.04-3.03 3.94-2.48 1.89-4.52 2.95-4.52 2.35zm220.21-.28c.42-.68 1.99-1.88 3.5-2.67 2.72-1.43 2.72-1.42.36 1.24-2.38 2.68-5.31 3.77-3.86 1.43zM248.04 85.9c-.86-1.36-1.55-2.8-1.55-3.19 0-1.33 2.47.79 3.78 3.24 1.71 3.19-.24 3.15-2.23-.05zm281.52-.57c-1.05-1.05.28-8.18 1.53-8.18.6 0 1.06.98 1.01 2.18-.12 3.05-1.72 6.82-2.54 6zm-153.59-4.44c.31-2.06.77-3.74 1.04-3.74.26 0 .48 1.68.48 3.74s-.47 3.74-1.03 3.74c-.57 0-.79-1.68-.49-3.74zm-122.41 1.67c-.46-.46-.83-1.42-.83-2.13 0-.78.58-.7 1.47.19.81.81 1.19 1.77.83 2.12-.35.36-1.02.27-1.47-.18zm12.13-1.15c.42-1.08.76-3.61.76-5.61s.56-3.64 1.25-3.64c.68 0 1.24 1.26 1.23 2.81-.03 4.28-1.38 8.42-2.76 8.42-.68 0-.89-.89-.48-1.98zm197.26.73c-.42-.69-.18-1.25.55-1.25s1.32.56 1.32 1.25-.25 1.25-.55 1.25-.9-.56-1.32-1.25zm-253.89-1.25c0-.77-.56-1.05-1.25-.62-1.62 1-1.57.21.2-3.69.8-1.74 1.94-3.17 2.54-3.17s.51 1.08-.2 2.41c-1.63 3.04-1.64 4.19-.04 3.2.68-.42 1.24-.21 1.24.48 0 .68-.56 1.59-1.24 2.02-.69.42-1.25.14-1.25-.63zM30.03 79.65c-1.013-1.64.424-6.24 1.95-6.24 1.514 0 1.516 5.87.002 6.8-.638.4-1.517.15-1.952-.56zm205.23-.01c-2.98-.95-2.94-1 .86-1.12 2.19-.07 4.33.44 4.75 1.12.89 1.44-1.13 1.44-5.61 0zm308.26-.52c-.05-1.31.24-2.05.65-1.63.42.41.46 1.49.1 2.39-.4.99-.69.7-.75-.76zm-94.92-.72c0-.69 1.44-1.25 3.19-1.25 1.82 0 2.86.54 2.43 1.25-.43.68-1.86 1.24-3.2 1.24-1.33 0-2.42-.56-2.42-1.24zm245.84-1.14c-.97-1.81-.98-2.61-.06-2.61 1.51 0 3.16 3.5 2.13 4.53-.37.37-1.3-.49-2.07-1.92zm-472.05-.58c-.87-2.27 1.5-4.53 4.7-4.48 2.33.04 2.28.21-.56 1.83-2.49 1.42-2.66 1.79-.87 1.83 1.24.02 1.91.6 1.49 1.29-1.12 1.81-3.99 1.53-4.76-.47zm17.86-.26c-1.94-1.08-2.39-1.74-1.17-1.75 1.07-.01 3.03.81 4.36 1.82 3.03 2.29.98 2.24-3.19-.07zm199.62.73c2.46-1.59 6.6-1.59 5.61 0-.42.69-2.28 1.24-4.13 1.23-2.62-.02-2.95-.29-1.48-1.23zm49.48-1.81c-.46-1.19-.48-2.73-.04-3.43.43-.7.03-1.75-.9-2.32-1.34-.83-1.23-1.21.52-1.89 2.53-.97 2.75-.81 3.81 2.65.43 1.41.03 3.59-.89 4.86-1.57 2.14-1.73 2.15-2.5.13zm-244.79-2.02c-1.34-2.17.19-2.63 1.9-.57.99 1.19 1.08 1.9.25 1.9-.73 0-1.69-.6-2.15-1.33zm6.24 0c-1.34-2.17.19-2.63 1.9-.57.98 1.19 1.08 1.9.25 1.9-.73 0-1.69-.6-2.15-1.33zm190.07-.16c1.16-1.17 1.83-1.17 2.99 0 1.17 1.16.83 1.49-1.5 1.49s-2.66-.33-1.49-1.49zm16.47.29c0-.67.84-.89 1.87-.5 1.03.4 1.87.94 1.87 1.21s-.84.49-1.87.49-1.87-.54-1.87-1.2zm152.06-.98c-.08-1.2-.22-6.39-.31-11.54-.19-10.7-1.23-13.45-4.16-11.02-1.56 1.29-2.2 1.15-3.63-.81-1.97-2.69-2.32-8.87-.57-9.95.64-.4 1.34 1.07 1.56 3.26.53 5.39 3.51 6.28 3.51 1.05 0-5.85 2.92-4.02 4.14 2.6 1.38 7.46 1.81 28.59.59 28.59-.54 0-1.05-.98-1.13-2.18zm-390.36-.33c0-1.41 4.71-4.03 6.28-3.49.63.21-.52 1.35-2.57 2.51-2.04 1.17-3.71 1.61-3.71.98zm367.4-3.86c-.47-2.82-2.49-7.53-4.48-10.48s-3.95-7.03-4.36-9.08c-.69-3.43-.51-3.67 2.38-3.11 2.63.5 3.25 1.51 3.98 6.4.48 3.19 1.74 7.49 2.8 9.54 3.69 7.15 4.07 8.09 4.07 9.97 0 1.04-.79 1.89-1.76 1.89-1.09 0-2.09-1.96-2.63-5.13zm-501.8 1.88c.41-.42 1.49-.46 2.39-.1.99.4.7.69-.76.75-1.31.06-2.05-.24-1.63-.65zm5.71-1.58c2.11-1.37 13.91-1.71 13.91-.4 0 .52-3.51 1.08-7.8 1.23-4.83.16-7.15-.15-6.11-.83zm172.57-2.06c-.85-1.88-1.3-3.67-.98-3.99.84-.84 3.49 4.56 2.98 6.1-.24.72-1.14-.22-2-2.11zM274.86 68c-1.45-3.57-1.19-6.58.43-4.97.74.75 1.16 2.68.92 4.31-.37 2.59-.54 2.67-1.35.66zm181.85.42c-2.23-.96-2.13-1.09.86-1.16 1.85-.05 3.71.47 4.13 1.16.92 1.48-1.52 1.48-4.99 0zM32.15 65.87c-.875-1.4-1.257-3.09-.85-3.74 1.397-2.26 2.805-1.2 3.354 2.54.639 4.36-.26 4.79-2.504 1.2zm198.46.32c-1.92-1.4-1.97-1.77-.35-2.8 1.03-.64 4.12-1.09 6.86-.98l4.99.19-4.68.49c-6.6.69-5.82 2.62 1.25 3.09l5.93.39-5.9.62c-3.76.39-6.69.03-8.1-1zm212.29.46c2.82-2.29 4-2.46 5.07-.73.42.69-.06 1.25-1.07 1.25-1.02 0-2.88.32-4.13.72-2.09.67-2.08.56.13-1.24zm-230.11-.56c0-1.32 3.55-4.42 7.28-6.35 5.09-2.63 4.12-.66-1.68 3.43-3.08 2.17-5.6 3.48-5.6 2.92zm125.39-.17c-.43-.69-.18-1.25.55-1.25.72 0 1.32.56 1.32 1.25s-.25 1.25-.55 1.25-.9-.56-1.32-1.25zM93.69 64.6c.4-.65 2.75-1.17 5.23-1.17 5.52 0 5.02.65-1.25 1.62-2.81.43-4.41.25-3.98-.45zm371.74.07c-.42-.68-.2-1.24.48-1.24.69 0 1.6.56 2.02 1.24.42.69.21 1.25-.48 1.25-.68 0-1.59-.56-2.02-1.25zm-15.59-1.24c0-.69.53-1.25 1.17-1.25.65 0 1.52.56 1.95 1.25.42.68-.11 1.24-1.18 1.24s-1.94-.56-1.94-1.24zM210.3 61.17c0-1.96 4.17-7.73 5.58-7.73 1.39 0-.21 5.86-2.13 7.78-2.78 2.78-3.45 2.77-3.45-.05zm-120.42-.21c.44-.7 3.1-1.28 5.92-1.28 6.3 0 5.82.64-1.31 1.73-3.56.54-5.13.39-4.61-.45zm157.85-1.1c0-.82-1.49-2.05-3.3-2.74-3.73-1.42-3.21-3.08.59-1.87 2.48.78 4.59 4.21 3.36 5.44-.36.36-.65-.01-.65-.83zm438.63-3.61c1.1-6.17 3.02-8.18 3.02-3.16 0 4.67-1.08 7.84-2.68 7.84-.67 0-.82-2.01-.34-4.68zm-598.12.94c.36-1.13 2.32-1.95 4.88-2.07 2.97-.13 3.32 0 1.15.43-1.72.35-3.91 1.28-4.88 2.07-1.39 1.13-1.64 1.04-1.15-.43zm300.47.27c0-.53 1.69-2.82 3.76-5.08 5.46-5.98 7.46-10.54 7.46-16.96 0-3.13.57-5.68 1.25-5.68 1.88 0 1.5 6.65-.75 13.3-2.59 7.6-11.72 18.85-11.72 14.42zM260.3 54.88c-1.63-3.06-1.69-3.93-.24-3.93 1.13 0 2.91 5.13 2.06 5.98-.26.26-1.08-.66-1.82-2.05zm19.86.36c0-1.07.56-1.6 1.25-1.17.69.42 1.25 1.3 1.25 1.94 0 .65-.56 1.18-1.25 1.18s-1.25-.88-1.25-1.95zm-51.15-.55c4.48-1.43 6.5-1.43 5.62 0-.43.69-2.57 1.19-4.76 1.12-3.8-.11-3.84-.16-.86-1.12zm247.03.14c0-1.41 3.24-2.72 4.24-1.72 1.51 1.51.69 2.83-1.75 2.83-1.37 0-2.49-.5-2.49-1.11zm-394.25-.94c0-2.37 3.07-4.19 6.8-4.02 3.4.15 3.47.23.69.74-1.72.31-4.1 1.44-5.3 2.52-1.21 1.07-2.19 1.41-2.19.76zm118.87-6.59c.18-3.61.92-5.73 2.15-6.13 1.59-.51 1.62-.3.21 1.41-.92 1.11-1.34 2.56-.94 3.21.41.65.19 2.5-.48 4.11-1.02 2.44-1.17 2.01-.94-2.6zm33.05 3.44c1.08-1.08 2.2-1.1 4.31-.08 2.67 1.28 2.58 1.37-1.46 1.45-3.28.07-3.96-.26-2.85-1.37zm14.35.7c.42-.41 1.49-.46 2.39-.1 1 .4.7.7-.75.76-1.31.05-2.05-.24-1.64-.66zm325.92-1.74c-.43-.68-.21-1.25.47-1.25.69 0 1.6.57 2.02 1.25.43.69.21 1.25-.47 1.25-.69 0-1.6-.56-2.02-1.25zm-353.7-1.22c0-1.5 5.52-3.01 7.74-2.12.89.36.38.69-1.12.75-1.5.05-3.08.66-3.5 1.34-.99 1.61-3.12 1.62-3.12.03zm43.69-.62c-.98-1.19-1.08-1.9-.25-1.9 1.51 0 3.26 2.37 2.4 3.23-.32.31-1.28-.28-2.15-1.33zm9.43.76c-.53-.87-.64-1.92-.22-2.33 1.11-1.12 2.33.53 1.73 2.34-.43 1.26-.72 1.26-1.51-.01zm227.59-.86c0-1.07.56-1.6 1.25-1.18.69.43 1.25 1.3 1.25 1.95 0 .64-.56 1.17-1.25 1.17s-1.25-.87-1.25-1.94zm-257.97-.21c-2.24-.28-3.75-1.03-3.35-1.68.79-1.27 6.71-.25 8.62 1.5.75.68.75 1.01 0 .88-.66-.11-3.02-.42-5.27-.7zm252.36-.34c-.43-.69-.21-1.25.47-1.25.69 0 1.6.56 2.02 1.25.43.68.21 1.24-.47 1.24-.69 0-1.6-.56-2.02-1.24zm10.6 0a1.25 1.25 0 012.5 0c0 .68-.56 1.24-1.25 1.24s-1.25-.56-1.25-1.24zm3.75 0c0-.69.84-1.25 1.87-1.25s1.87.56 1.87 1.25c0 .68-.84 1.24-1.87 1.24s-1.87-.56-1.87-1.24zm-423.86-.76c.42-.41 1.49-.46 2.39-.1 1 .4.7.7-.75.76-1.32.05-2.05-.24-1.64-.66zm131.91-.42c0-1.63 4.73-4.11 6.62-3.47.82.27-.33 1.45-2.56 2.61-2.23 1.15-4.06 1.54-4.06.86zm347.78.28c-2.66-.4-3.43-1.2-3.43-3.55 0-1.67.62-3.04 1.38-3.04s1.05.84.66 1.87c-.4 1.03-.18 1.87.49 1.87.66 0 1.23-.7 1.25-1.56.02-.91.76-.6 1.79.75 2.13 2.83 4.41 1.74 3.52-1.68-.36-1.38-.06-2.5.67-2.5 1.1 0 1.21 2.23.36 7.8-.15.95-.66.96-6.69.04zm-431.37-1.49c0-.63 1.75-4.56 3.9-8.75 2.61-5.1 4.83-7.84 6.74-8.32 1.57-.4 3.13-1.79 3.47-3.11.49-1.85 1.75-2.39 5.66-2.39 2.77 0 5.37.54 5.77 1.19 1.02 1.66-4.09 4.16-6.56 3.21-2.52-.96-16.48 13.39-16.48 16.95 0 1.3-.56 2.36-1.25 2.36s-1.25-.51-1.25-1.14zm306.29-.11c-.42-.69-.17-1.25.55-1.25.73 0 1.32.56 1.32 1.25s-.24 1.25-.55 1.25c-.3 0-.89-.56-1.32-1.25zm103.55-.15c-2.74-.57-7.79-1.35-11.22-1.75-3.43-.39-7.8-1.32-9.69-2.06-1.9-.74-5.44-1.03-7.87-.63-3.22.52-4.6.22-5.11-1.12-.55-1.42-1.1-1.51-2.45-.39-.96.79-3.84 1.59-6.4 1.78-14.98 1.06-17 1.01-17.48-.45-.34-1 .72-1.44 3.03-1.28 1.95.13 4.81-.17 6.34-.68l2.8-.92-3.73-3.97c-2.05-2.19-3.73-4.4-3.73-4.91-.01-1.85 2.39-.88 4.19 1.69 2.35 3.36 4.04 2.3 5.07-3.18.84-4.51 5.75-9.46 9.31-9.39 1.63.04 1.52.46-.61 2.24-1.45 1.21-3.19 3.29-3.88 4.64-1.64 3.18-1.97 13.42-.41 12.45.65-.4.89-1.5.53-2.44s-.05-2.07.68-2.53c.81-.5 1.4.55 1.5 2.68.15 2.95.26 3.06.72.7.63-3.3 2.85-3.78 2.88-.62.01 1.83.2 1.89 1.18.34s1.3-1.47 2.06.52c.84 2.18.98 2.14 1.95-.49.81-2.19 1.43-2.52 2.71-1.46.92.76 2.04 1 2.5.54.46-.45 1.65.25 2.65 1.57 1.75 2.31 1.82 2.28 1.86-.78.05-3.99 1.87-6.26 7.9-9.86 6.54-3.9 7.1-2.41.96 2.53-4.08 3.27-5.08 4.88-5.08 8.18 0 3.77.37 4.15 4.68 4.83 2.57.4 7.83 1.28 11.68 1.95 7.78 1.37 11.02.68 11.23-2.39.13-1.76.23-1.74.72.13.6 2.31 2.88 3.05 2.88.94 0-.69.6-1.25 1.34-1.25.73 0 1.15 1.22.93 2.72-.33 2.3-1.28 2.76-6.01 2.94-3.09.12-7.86-.25-10.61-.82zm35.66-1.62c-.05-1.31.24-2.05.66-1.63.41.41.45 1.49.09 2.39-.39.99-.69.7-.75-.76zm-349.43-.76c-2.76-.77-2.86-.98-.85-1.83 1.3-.55 2.85-.37 3.66.43 1.92 1.92.89 2.44-2.81 1.4zm20.58-.71l-3.74-1.64 3.36-.05c1.85-.03 3.73.54 4.18 1.27 1.28 2.08.26 2.19-3.8.42zm-166.86-.08c.85-.35 2.26-.35 3.11 0 .86.35.16.63-1.56.63-1.71 0-2.41-.28-1.55-.63zm491.97-.94c-.06-1.32.24-2.05.65-1.64.42.42.46 1.49.1 2.39-.4 1-.69.7-.75-.75zm-98.38-.96c.77-2.32 3.46-2.7 3.46-.5 0 1.09-.89 1.98-1.98 1.98-1.08 0-1.75-.67-1.48-1.48zm90.34-2.89c-.39-1.03-.17-1.87.49-1.87.67 0 1.21.84 1.21 1.87s-.22 1.87-.49 1.87-.81-.84-1.21-1.87zm16.84-3.33c-.09-1.14-.53-3.11-.98-4.36-.62-1.77-.45-1.97.73-.87.85.77 1.29 2.74.98 4.36-.31 1.63-.63 2.02-.73.87zm-325.8-1.04c0-.68.25-1.24.55-1.24.31 0 .9.56 1.33 1.24.42.69.17 1.25-.55 1.25-.73 0-1.33-.56-1.33-1.25zm9.62-1.26c-.36-1.36-.2-2.48.35-2.48 1.46 0 2.58 3.56 1.35 4.31-.58.36-1.34-.46-1.7-1.83zm13.14.03c-1.95-3.12-1.97-4.16-.05-2.98.83.51 3.63.8 6.24.65 2.71-.16 4.74.29 4.74 1.06 0 2.13-3.6 2.93-5.63 1.24-1.51-1.25-1.86-1.16-1.86.49 0 2.75-1.56 2.54-3.44-.46zm-90.13.18c0-1.6 4.34-5.18 6.28-5.18 1.25 0 1.34-.37.32-1.39-1.01-1.01-2.53-1-5.67.04-4.23 1.39-11.94 1.46-12.78.11-.63-1.04-12.14-.63-14.66.51-1.53.7-2.18.45-2.18-.8 0-2.75 5.54-5.16 9.58-4.18 8.02 1.96 13.88 2.3 20.69 1.2 2.6-.42 5.39-.19 6.25.53 1.09.9 3.59.56 8.4-1.14 3.77-1.33 7.7-2.23 8.72-1.99 1.03.24 3.31-.27 5.07-1.13 2.02-.99 3.85-1.15 4.99-.42.99.62 3.06 1.14 4.6 1.15 1.55.01 2.81.59 2.81 1.28s-2.38 1.17-5.3 1.07c-10.62-.39-29.72 5.12-33.49 9.66-1.6 1.93-3.63 2.31-3.63.68zm71.12-.19c0-.69.24-1.25.55-1.25.3 0 .89.56 1.32 1.25.42.68.17 1.24-.55 1.24-.73 0-1.32-.56-1.32-1.24zm11.66-.68c-1.16-3.03.45-3.57 2-.68.97 1.81.99 2.6.07 2.6-.74 0-1.67-.86-2.07-1.92zm36.3.57c-1.02-1.65-.64-2.01 3.19-2.97 3.26-.81 8.86 2.12 7.2 3.78-.5.49-1.8.15-2.91-.76-1.55-1.3-2.52-1.34-4.33-.21-1.6 1-2.6 1.05-3.15.16zm263.96.42c.03-1.63 1.78-3.59 3.88-4.36 1.39-.51 2.5.28 3.5 2.48 1.31 2.87 1.25 3.05-.47 1.62-1.31-1.08-1.94-1.15-1.94-.21 0 .77-1.12 1.4-2.49 1.4-1.38 0-2.49-.42-2.48-.93zm-278.24-1.56c0-.69.84-1.25 1.87-1.25s1.88.56 1.88 1.25-.85 1.25-1.88 1.25-1.87-.56-1.87-1.25zm53.9-3.18c-1.14-1.29-2.26-1.49-3.81-.66-1.31.7-2.92.72-3.99.05-1-.62-3.84-.8-6.33-.4-2.72.43-4.86.16-5.38-.67-.54-.88.39-1.38 2.59-1.38 2.45 0 3.06-.39 2.11-1.33-.75-.76-1.06-3.74-.71-6.86.41-3.65.14-5.53-.79-5.53-.77 0-1.42 1.82-1.43 4.05-.02 5.6-1.35 7.21-5.33 6.49-1.87-.34-3.38-.04-3.38.66s.94 1.27 2.08 1.27c2.82 0 1.78.72-2.55 1.76-2.84.69-3.44.49-2.89-.94.56-1.47-.06-1.62-3.28-.79-2.18.56-7.42 1.23-11.64 1.5l-7.67.49-1.37-4.59c-1.89-6.29-1.65-8.67.5-4.91 1.64 2.88 1.78 2.92 1.82.52.07-4.19 5.55-3.14 6.06 1.15.5 4.22 2.69 3.09 2.8-1.43l.08-3.36 2.02 4.05c2.72 5.47 4.52 5.15 3.55-.62-.74-4.36-.67-4.51 1.1-2.26 1.05 1.34 1.9 3.72 1.9 5.31 0 1.58.64 2.88 1.42 2.88.91 0 1.16-1.54.7-4.37-.84-5.14-.06-5.68 1.66-1.17 1.36 3.58 3.82 3.1 2.86-.56-.82-3.16 1.44-4.37 3.78-2.03 2.61 2.62 3.31 2.37 3.31-1.16 0-3.84.78-4.29 8.96-5.18 5.72-.63 7-.36 9.03 1.88l2.36 2.61 3.86-2.89c2.12-1.58 5.54-3.53 7.6-4.31 4.57-1.75 13.33-1.56 12.68.27-.26.72-2.31 1.16-4.55.97-2.24-.18-4.92.37-5.95 1.23-1.04.86-2.52 1.58-3.28 1.59-2.87.04-12 7-13.83 10.55-2.48 4.79-2.43 5.05.9 5.1 2.76.04 7.17 2.59 7.17 4.15 0 1.47-3.1.73-4.74-1.13zm-7.74-4.17c0-1.53-3.51-2.76-4.29-1.5-.34.56-.27 1.37.17 1.81 1.19 1.19 4.12.97 4.12-.31zm1.21-12.92c.02-.52-.71-.94-1.64-.94-1.04 0-1.72 1.54-1.78 4.05l-.11 4.06 1.74-3.12c.96-1.72 1.76-3.54 1.79-4.05zm3.75 1.71c-.04-1.7-.34-1.64-1.88.4-2.38 3.15-2.36 5.18.04 3.19 1.03-.86 1.86-2.47 1.84-3.59zm-8.7 1.17c0-.65-.56-1.52-1.25-1.95-.68-.42-1.24.11-1.24 1.18 0 1.06.56 1.94 1.24 1.94.69 0 1.25-.53 1.25-1.17zm293.19 14.87c0-.7-1.42-1.92-3.15-2.71s-2.96-2.01-2.73-2.71c.79-2.36 3.22-2.21 5.8.38 2.7 2.69 3.46 6.31 1.33 6.31-.69 0-1.25-.57-1.25-1.27zM484.6 25.41c-.32-.32-2.52-.7-4.88-.84-2.37-.15-5.02-.8-5.89-1.46s-4.37-.87-7.79-.46c-5.17.61-6.22.4-6.22-1.26 0-1.73 1.33-1.88 10.12-1.15 9.19.77 18.58 3.33 18.58 5.07 0 .84-3.1.92-3.92.1zm-211.3-1.94c-4.12-.56-8.75-.73-10.29-.36-3.11.73-3.9-1.42-.94-2.56 1.03-.39 1.87-1.52 1.87-2.51 0-1.46-.56-1.53-3.11-.35-1.71.8-3.11 2.18-3.11 3.09-.01 1.14-.88 1.36-2.82.74-1.54-.5-5.47-.85-8.73-.78-4.62.1-5.93-.31-5.93-1.84 0-1.58 1.04-1.83 5.3-1.31 2.92.35 6.29 1.05 7.49 1.54 1.68.69 2.18.28 2.18-1.8 0-3.37 3.38-10.05 5.08-10.05.7 0 2.71-1.54 4.46-3.43C267.8.56 268.48.41 281.84.06c12.84-.34 21.16.87 30.76 4.47 4.42 1.65-3.89 1.54-10.78-.14-6.7-1.64-11.68-1.85-26.3-1.12-4.1.21-5.1.68-4.54 2.14.39 1.03.2 1.87-.43 1.87-2.27 0-6.46 7.15-5.76 9.83.79 3.03 2.9 3.59 2.9.78 0-1.03.59-1.87 1.32-1.87s1.04.44.7.99c-.33.55-.09 1.81.54 2.81.9 1.42 1.15 1.23 1.16-.9.01-1.48.36-3.59.78-4.67 1.34-3.5 2.5-2.1 1.97 2.39-.7 6.03 1.76 5.53 2.73-.55.43-2.71 1.43-5.32 2.22-5.81 1.03-.64 1.21.26.64 3.15-.85 4.22.78 8.82 3.11 8.82.93 0 .9-.55-.1-1.75-.83-1-1.11-3.14-.64-4.99 1.17-4.68 3.41-4.06 2.38.66-.62 2.79-.45 3.65.58 3.01.78-.48 2.2-.25 3.14.53 2.34 1.95 3.66-.44 1.98-3.59-1.61-3.02-1.64-3.85-.11-3.85.65 0 1.56 1.98 2.01 4.39s1.74 4.92 2.86 5.57c1.53.89.79 1.17-2.94 1.09-2.75-.05-6.4.2-8.11.55-1.72.34-6.49.17-10.61-.4zm-10.23-10.61c1.41-1.95 1.69-3.08.76-3.08-1.5 0-4.76 3.58-4.84 5.3-.08 1.86 1.88.79 4.08-2.22zM582.09 23.5c0-.68.84-1.25 1.87-1.25s1.87.57 1.87 1.25c0 .69-.84 1.25-1.87 1.25s-1.87-.56-1.87-1.25zm-22.46-1.17c-6.44-.42-10.36-1.19-9.98-1.95 1.14-2.28 24.95-.43 24.95 1.95 0 .64-.98 1.07-2.18.94s-6.96-.55-12.79-.94zm18.09-.08c.42-.68 1.3-1.24 1.95-1.24.64 0 1.17.56 1.17 1.24 0 .69-.88 1.25-1.95 1.25s-1.59-.56-1.17-1.25zm42.37-.08c-1.15-1.86.18-2.87 2.57-1.95 1.1.42 1.65 1.33 1.23 2.02-1.01 1.64-2.77 1.61-3.8-.07zm-79.92-1.67c2.32-1.87 2.3-1.96-.62-3.06-1.81-.68-3.87-.67-5.21.03-2.53 1.32-17.13-1.12-17.13-2.86 0-1.42 2.8-1.39 6.62.06 1.74.67 5 .71 7.68.11 4.95-1.12 11.21.38 14.23 3.39 2.15 2.15 1.64 2.63-3.67 3.54-4.01.68-4.13.6-1.9-1.21zm-102.81-1.99c0-.73 4.37-1.25 10.61-1.25s10.6.52 10.6 1.25-4.36 1.25-10.6 1.25-10.61-.52-10.61-1.25zm-14.03-.92c-2.49-.58-2.99-2.83-.63-2.81 3.91.04 10.92 1.66 10.92 2.52 0 1-6.47 1.18-10.29.29zm87.17.04c-.39-.39-.41-1.2-.04-1.79.87-1.42 4.26-1.38 4.26.04 0 1.38-3.24 2.72-4.22 1.75zm-94.35-2.86c0-.69.88-1.25 1.95-1.25s1.6.56 1.17 1.25c-.42.68-1.3 1.25-1.94 1.25-.65 0-1.18-.57-1.18-1.25zm-7.48-1.03c0-.56-3.65-1.78-8.11-2.71-7.98-1.67-9.79-2.84-6.39-4.14 1.62-.62 10.61 1.82 16.68 4.55 3.48 1.56 3.65 3.33.31 3.33-1.37 0-2.49-.46-2.49-1.03zm-27.76-7.51c-1.88-1.14-3.43-2.77-3.43-3.63 0-2.22 1.68-1.93 5.33.94 1.74 1.37 3.78 2.49 4.53 2.49s1.37.57 1.37 1.25c0 1.84-3.88 1.32-7.8-1.05zm-63.32-.2c0-.68 2.21-1.24 4.92-1.24 2.7 0 5.26.56 5.69 1.24.47.77-1.45 1.25-4.92 1.25-3.13 0-5.69-.56-5.69-1.25z" />
</svg>
